G04 #@! TF.GenerationSoftware,KiCad,Pcbnew,(2017-05-02 revision e4d2924ee)-makepkg*
G04 #@! TF.CreationDate,2017-08-14T20:38:34-05:00*
G04 #@! TF.ProjectId,NoiseGen,4E6F69736547656E2E6B696361645F70,rev?*
G04 #@! TF.FileFunction,Copper,L1,Top,Signal*
G04 #@! TF.FilePolarity,Positive*
%FSLAX46Y46*%
G04 Gerber Fmt 4.6, Leading zero omitted, Abs format (unit mm)*
G04 Created by KiCad (PCBNEW (2017-05-02 revision e4d2924ee)-makepkg) date 08/14/17 20:38:34*
%MOMM*%
%LPD*%
G01*
G04 APERTURE LIST*
%ADD10C,0.100000*%
%ADD11C,4.445000*%
%ADD12R,0.750000X0.800000*%
%ADD13R,0.800000X0.750000*%
%ADD14R,0.800000X0.600000*%
%ADD15O,1.700000X1.700000*%
%ADD16R,1.700000X1.700000*%
%ADD17R,5.080000X2.616200*%
%ADD18R,5.080000X2.286000*%
%ADD19R,1.000000X2.500000*%
%ADD20R,1.250000X1.000000*%
%ADD21C,3.302000*%
%ADD22R,1.400000X1.200000*%
%ADD23R,1.400000X1.000000*%
%ADD24R,1.060000X0.650000*%
%ADD25R,1.300000X1.300000*%
%ADD26R,1.300000X2.000000*%
%ADD27R,0.900000X0.800000*%
%ADD28C,0.800000*%
%ADD29C,1.016000*%
%ADD30C,0.762000*%
%ADD31C,0.508000*%
%ADD32C,0.203200*%
%ADD33C,0.254000*%
G04 APERTURE END LIST*
D10*
D11*
X86360000Y-107950000D03*
X86360000Y-95250000D03*
D12*
X106680000Y-97040000D03*
X106680000Y-98540000D03*
D13*
X115685000Y-97790000D03*
X114185000Y-97790000D03*
X123075000Y-101600000D03*
X124575000Y-101600000D03*
D12*
X90805000Y-104255000D03*
X90805000Y-102755000D03*
D13*
X128790000Y-99695000D03*
X130290000Y-99695000D03*
D12*
X97155000Y-107200000D03*
X97155000Y-108700000D03*
D13*
X128790000Y-101600000D03*
X130290000Y-101600000D03*
D12*
X97155000Y-104255000D03*
X97155000Y-102755000D03*
D13*
X137045000Y-101600000D03*
X138545000Y-101600000D03*
D12*
X99060000Y-102755000D03*
X99060000Y-104255000D03*
D14*
X75946000Y-91274000D03*
X75946000Y-89574000D03*
D15*
X73660000Y-95250000D03*
D16*
X76200000Y-95250000D03*
D17*
X146685000Y-105918000D03*
X146685000Y-97155000D03*
D18*
X146685000Y-101600000D03*
D19*
X111670000Y-94615000D03*
X106770000Y-94615000D03*
D12*
X117475000Y-97802000D03*
X117475000Y-99302000D03*
D13*
X119265000Y-97790000D03*
X120765000Y-97790000D03*
D12*
X122555000Y-99302000D03*
X122555000Y-97802000D03*
D20*
X80264000Y-91424000D03*
X80264000Y-89424000D03*
D21*
X76200000Y-113030000D03*
X76200000Y-108432600D03*
X76200000Y-103835200D03*
D22*
X126830000Y-99576000D03*
D23*
X126830000Y-97856000D03*
X124630000Y-97856000D03*
X124630000Y-99756000D03*
D24*
X95250000Y-104780000D03*
X95250000Y-106680000D03*
X93050000Y-106680000D03*
X93050000Y-105730000D03*
X93050000Y-104780000D03*
D23*
X132420000Y-101600000D03*
X132420000Y-99700000D03*
X134620000Y-99700000D03*
D22*
X134620000Y-101420000D03*
D25*
X98365000Y-94735000D03*
D26*
X103565000Y-95885000D03*
D25*
X98365000Y-97035000D03*
D27*
X110125000Y-98806000D03*
X112125000Y-97856000D03*
X112125000Y-99756000D03*
X139335000Y-100330000D03*
X141335000Y-99380000D03*
X141335000Y-101280000D03*
D28*
X73660000Y-88900000D03*
X81280000Y-92710000D03*
X76200000Y-97790000D03*
X96520000Y-97536000D03*
X99187000Y-98806000D03*
X101854000Y-97409000D03*
X104902000Y-98044000D03*
X108458000Y-97536000D03*
X98425000Y-92710000D03*
X101600000Y-93980000D03*
X105410000Y-93345000D03*
X107315000Y-92075000D03*
X146685000Y-99695000D03*
X80772000Y-109347000D03*
X123403373Y-98968482D03*
X111760000Y-102870000D03*
X129540000Y-106045000D03*
X134620000Y-106045000D03*
X139700000Y-106045000D03*
X131445000Y-102743000D03*
X129408352Y-100867205D03*
X110490000Y-97155000D03*
X109855000Y-95250000D03*
X109855000Y-93345000D03*
X111760000Y-92075000D03*
X127000000Y-100965000D03*
X116205000Y-99060000D03*
X113665000Y-99060000D03*
X113030000Y-93345000D03*
X113030000Y-95250000D03*
X114300000Y-96520000D03*
X116840000Y-96520000D03*
X118745000Y-96520000D03*
X121285000Y-96520000D03*
X123825000Y-96520000D03*
X126365000Y-96520000D03*
X128270000Y-97155000D03*
X128905000Y-98425000D03*
X130810000Y-98425000D03*
X132715000Y-98425000D03*
X134620000Y-98425000D03*
X135890000Y-99060000D03*
X133350000Y-102870000D03*
X135255000Y-102870000D03*
X137160000Y-102870000D03*
X139065000Y-102870000D03*
X140970000Y-102870000D03*
X142875000Y-102870000D03*
X137160000Y-100330000D03*
X142875000Y-100330000D03*
X119253000Y-99060000D03*
X111506000Y-98933000D03*
X146685000Y-103505000D03*
X121285000Y-99695000D03*
X142875000Y-97155000D03*
X132080000Y-93980000D03*
X142240000Y-95250000D03*
X137160000Y-95250000D03*
X94107000Y-105664000D03*
X95250000Y-109220000D03*
X96520000Y-101600000D03*
X99060000Y-101600000D03*
X90170000Y-100330000D03*
X95250000Y-100330000D03*
X102870000Y-100330000D03*
X106680000Y-102870000D03*
X116840000Y-102870000D03*
X91440000Y-93980000D03*
X86360000Y-99060000D03*
X86360000Y-101600000D03*
X119380000Y-88900000D03*
X127000000Y-88900000D03*
X132080000Y-88900000D03*
X137160000Y-88900000D03*
X147320000Y-91440000D03*
X147320000Y-88900000D03*
X142240000Y-88900000D03*
X83820000Y-88900000D03*
X88900000Y-88900000D03*
X96520000Y-88900000D03*
X106680000Y-88900000D03*
X111760000Y-88900000D03*
X114300000Y-91440000D03*
X119380000Y-91440000D03*
X127000000Y-91440000D03*
X132080000Y-91440000D03*
X137160000Y-91440000D03*
X142240000Y-91440000D03*
X96520000Y-111760000D03*
X91440000Y-109220000D03*
X104140000Y-109220000D03*
X109220000Y-109220000D03*
X114300000Y-109220000D03*
X119380000Y-109220000D03*
X124460000Y-109220000D03*
X129540000Y-109220000D03*
X134620000Y-109220000D03*
X139700000Y-109220000D03*
X144780000Y-109220000D03*
X81280000Y-114300000D03*
X86360000Y-114300000D03*
X91440000Y-114300000D03*
X96520000Y-114300000D03*
X104140000Y-114300000D03*
X109220000Y-114300000D03*
X114300000Y-114300000D03*
X119380000Y-114300000D03*
X129540000Y-114300000D03*
X134620000Y-114300000D03*
X139700000Y-114300000D03*
X144780000Y-114300000D03*
X146685000Y-108585000D03*
X146685000Y-94615000D03*
X121285000Y-101600000D03*
X117475000Y-100965000D03*
X127635000Y-102870000D03*
X142875000Y-106045000D03*
D29*
X73660000Y-95250000D02*
X73660000Y-101295200D01*
X73660000Y-101295200D02*
X76200000Y-103835200D01*
X83566001Y-110743999D02*
X86360000Y-107950000D01*
X81280000Y-113030000D02*
X83566001Y-110743999D01*
X76200000Y-113030000D02*
X81280000Y-113030000D01*
X73025000Y-106045000D02*
X73025000Y-109855000D01*
X73025000Y-109855000D02*
X76200000Y-113030000D01*
X73583801Y-105486199D02*
X73025000Y-106045000D01*
X76200000Y-103835200D02*
X74549001Y-105486199D01*
X74549001Y-105486199D02*
X73583801Y-105486199D01*
D30*
X141335000Y-99380000D02*
X140123000Y-99380000D01*
X140123000Y-99380000D02*
X139930000Y-99187000D01*
X139930000Y-99187000D02*
X138303000Y-99187000D01*
X138303000Y-99187000D02*
X137160000Y-100330000D01*
D31*
X128204000Y-97856000D02*
X128270000Y-97790000D01*
X128270000Y-97790000D02*
X128270000Y-97155000D01*
X126830000Y-97856000D02*
X128204000Y-97856000D01*
D29*
X80264000Y-91424000D02*
X80264000Y-91694000D01*
X80264000Y-91694000D02*
X81280000Y-92710000D01*
X76200000Y-95250000D02*
X76200000Y-97790000D01*
D32*
X99187000Y-98806000D02*
X97790000Y-98806000D01*
X97790000Y-98806000D02*
X96520000Y-97536000D01*
X104902000Y-98044000D02*
X102489000Y-98044000D01*
X102489000Y-98044000D02*
X101854000Y-97409000D01*
X106680000Y-98540000D02*
X107454000Y-98540000D01*
X107454000Y-98540000D02*
X108458000Y-97536000D01*
X105410000Y-93345000D02*
X102235000Y-93345000D01*
X102235000Y-93345000D02*
X101600000Y-93980000D01*
X109855000Y-93345000D02*
X108585000Y-93345000D01*
X108585000Y-93345000D02*
X107315000Y-92075000D01*
X146685000Y-97155000D02*
X146685000Y-99695000D01*
D31*
X122555000Y-99302000D02*
X123069855Y-99302000D01*
X123069855Y-99302000D02*
X123403373Y-98968482D01*
X116840000Y-102870000D02*
X111760000Y-102870000D01*
X134620000Y-106045000D02*
X129540000Y-106045000D01*
X142875000Y-106045000D02*
X139700000Y-106045000D01*
X133350000Y-102870000D02*
X131572000Y-102870000D01*
X131572000Y-102870000D02*
X131445000Y-102743000D01*
X112125000Y-99756000D02*
X112125000Y-99552000D01*
X112125000Y-99552000D02*
X111506000Y-98933000D01*
X117475000Y-99302000D02*
X116447000Y-99302000D01*
X116447000Y-99302000D02*
X116205000Y-99060000D01*
X117475000Y-99302000D02*
X119011000Y-99302000D01*
X119011000Y-99302000D02*
X119253000Y-99060000D01*
D32*
X135890000Y-99060000D02*
X135260000Y-99060000D01*
X135260000Y-99060000D02*
X134620000Y-99700000D01*
X128790000Y-101600000D02*
X128790000Y-101485557D01*
X128790000Y-101485557D02*
X129408352Y-100867205D01*
X109855000Y-93345000D02*
X109855000Y-95250000D01*
X113030000Y-93345000D02*
X111760000Y-92075000D01*
X127635000Y-102870000D02*
X127635000Y-101600000D01*
X127635000Y-101600000D02*
X127000000Y-100965000D01*
X111506000Y-98933000D02*
X113538000Y-98933000D01*
X113538000Y-98933000D02*
X113665000Y-99060000D01*
X114300000Y-96520000D02*
X113030000Y-95250000D01*
X118745000Y-96520000D02*
X116840000Y-96520000D01*
X123825000Y-96520000D02*
X121285000Y-96520000D01*
X128270000Y-97155000D02*
X127635000Y-96520000D01*
X127635000Y-96520000D02*
X126365000Y-96520000D01*
X130810000Y-98425000D02*
X128905000Y-98425000D01*
X134620000Y-98425000D02*
X132715000Y-98425000D01*
X137160000Y-100330000D02*
X135890000Y-99060000D01*
X137160000Y-102870000D02*
X135255000Y-102870000D01*
X140970000Y-102870000D02*
X139065000Y-102870000D01*
X142875000Y-106045000D02*
X142875000Y-102870000D01*
X142875000Y-97155000D02*
X142875000Y-100330000D01*
D31*
X146685000Y-104101900D02*
X146685000Y-103505000D01*
X146685000Y-105918000D02*
X146685000Y-104101900D01*
X122555000Y-99302000D02*
X121678000Y-99302000D01*
X121678000Y-99302000D02*
X121285000Y-99695000D01*
D30*
X137160000Y-95250000D02*
X133350000Y-95250000D01*
X133350000Y-95250000D02*
X132080000Y-93980000D01*
X137160000Y-91440000D02*
X137160000Y-95250000D01*
D31*
X93050000Y-105730000D02*
X94041000Y-105730000D01*
X94041000Y-105730000D02*
X94107000Y-105664000D01*
D30*
X97155000Y-108700000D02*
X95770000Y-108700000D01*
X95770000Y-108700000D02*
X95250000Y-109220000D01*
X97155000Y-102755000D02*
X97155000Y-102235000D01*
X97155000Y-102235000D02*
X96520000Y-101600000D01*
X99060000Y-102755000D02*
X99060000Y-101600000D01*
X90805000Y-102755000D02*
X90805000Y-100965000D01*
X90805000Y-100965000D02*
X90170000Y-100330000D01*
X106680000Y-102870000D02*
X105410000Y-102870000D01*
X105410000Y-102870000D02*
X102870000Y-100330000D01*
X117475000Y-100965000D02*
X117475000Y-102235000D01*
X117475000Y-102235000D02*
X116840000Y-102870000D01*
X86360000Y-95250000D02*
X90170000Y-95250000D01*
X90170000Y-95250000D02*
X91440000Y-93980000D01*
X86360000Y-99060000D02*
X86360000Y-101600000D01*
X86360000Y-95250000D02*
X86360000Y-99060000D01*
D32*
X121920000Y-86360000D02*
X119380000Y-88900000D01*
X127000000Y-86360000D02*
X121920000Y-86360000D01*
X127000000Y-88900000D02*
X127000000Y-86360000D01*
X137160000Y-88900000D02*
X132080000Y-88900000D01*
X147320000Y-88900000D02*
X147320000Y-91440000D01*
X142240000Y-91440000D02*
X142240000Y-88900000D01*
X88900000Y-88900000D02*
X83820000Y-88900000D01*
X104140000Y-86360000D02*
X99060000Y-86360000D01*
X99060000Y-86360000D02*
X96520000Y-88900000D01*
X105514799Y-87734799D02*
X104140000Y-86360000D01*
X106680000Y-88900000D02*
X105514799Y-87734799D01*
X114300000Y-91440000D02*
X111760000Y-88900000D01*
X124460000Y-93980000D02*
X121920000Y-93980000D01*
X121920000Y-93980000D02*
X119380000Y-91440000D01*
X126600001Y-91839999D02*
X124460000Y-93980000D01*
X127000000Y-91440000D02*
X126600001Y-91839999D01*
X137160000Y-91440000D02*
X132080000Y-91440000D01*
X146685000Y-93345000D02*
X144780000Y-91440000D01*
X144780000Y-91440000D02*
X142240000Y-91440000D01*
X146685000Y-94615000D02*
X146685000Y-93345000D01*
X91440000Y-109220000D02*
X93980000Y-109220000D01*
X93980000Y-109220000D02*
X96520000Y-111760000D01*
X109220000Y-109220000D02*
X104140000Y-109220000D01*
X119380000Y-109220000D02*
X114300000Y-109220000D01*
X129540000Y-109220000D02*
X124460000Y-109220000D01*
X139700000Y-109220000D02*
X134620000Y-109220000D01*
X144780000Y-114300000D02*
X144780000Y-109220000D01*
X91440000Y-114300000D02*
X86360000Y-114300000D01*
X99060000Y-114300000D02*
X96520000Y-114300000D01*
X101600000Y-116840000D02*
X99060000Y-114300000D01*
X104140000Y-114300000D02*
X101600000Y-116840000D01*
X114300000Y-114300000D02*
X109220000Y-114300000D01*
X124460000Y-116840000D02*
X121920000Y-116840000D01*
X121920000Y-116840000D02*
X119380000Y-114300000D01*
X125834799Y-115465201D02*
X124460000Y-116840000D01*
X129540000Y-114300000D02*
X128374799Y-115465201D01*
X128374799Y-115465201D02*
X125834799Y-115465201D01*
X139700000Y-114300000D02*
X134620000Y-114300000D01*
X146685000Y-108585000D02*
X146685000Y-112395000D01*
X146685000Y-112395000D02*
X144780000Y-114300000D01*
D30*
X146685000Y-97155000D02*
X146685000Y-94615000D01*
X146685000Y-97155000D02*
X142875000Y-97155000D01*
X146685000Y-105918000D02*
X143002000Y-105918000D01*
X143002000Y-105918000D02*
X142875000Y-106045000D01*
X122555000Y-99302000D02*
X122313000Y-99302000D01*
X117475000Y-99302000D02*
X117475000Y-100965000D01*
X128790000Y-101600000D02*
X128790000Y-101715000D01*
X128790000Y-101715000D02*
X127635000Y-102870000D01*
X123075000Y-101600000D02*
X121285000Y-101600000D01*
X98365000Y-97035000D02*
X99515000Y-95885000D01*
X99515000Y-95885000D02*
X103565000Y-95885000D01*
D29*
X106680000Y-97040000D02*
X106655000Y-97040000D01*
X106655000Y-97040000D02*
X105500000Y-95885000D01*
X103565000Y-95885000D02*
X105500000Y-95885000D01*
X105500000Y-95885000D02*
X106770000Y-94615000D01*
X106680000Y-97040000D02*
X106680000Y-94705000D01*
X106680000Y-94705000D02*
X106770000Y-94615000D01*
X115685000Y-97790000D02*
X117463000Y-97790000D01*
X117463000Y-97790000D02*
X117475000Y-97802000D01*
X119265000Y-97790000D02*
X117487000Y-97790000D01*
X117487000Y-97790000D02*
X117475000Y-97802000D01*
X111670000Y-94615000D02*
X111670000Y-97401000D01*
X111670000Y-97401000D02*
X112125000Y-97856000D01*
X114185000Y-97790000D02*
X112191000Y-97790000D01*
X112191000Y-97790000D02*
X112125000Y-97856000D01*
D30*
X125095000Y-103257000D02*
X125095000Y-105410000D01*
X127617000Y-105410000D02*
X125095000Y-105410000D01*
X125095000Y-105410000D02*
X104140000Y-105410000D01*
X124575000Y-101600000D02*
X124575000Y-102737000D01*
X124575000Y-102737000D02*
X125095000Y-103257000D01*
X130290000Y-101600000D02*
X130290000Y-102737000D01*
X130290000Y-102737000D02*
X127617000Y-105410000D01*
X104140000Y-105410000D02*
X102985000Y-104255000D01*
X102985000Y-104255000D02*
X99060000Y-104255000D01*
D29*
X97155000Y-104255000D02*
X95775000Y-104255000D01*
X95775000Y-104255000D02*
X95250000Y-104780000D01*
X99060000Y-104255000D02*
X97155000Y-104255000D01*
X130290000Y-101600000D02*
X132420000Y-101600000D01*
X124630000Y-99756000D02*
X124630000Y-101545000D01*
X124630000Y-101545000D02*
X124575000Y-101600000D01*
X89216488Y-104057488D02*
X89414000Y-104255000D01*
X89414000Y-104255000D02*
X90805000Y-104255000D01*
X80575112Y-104057488D02*
X89216488Y-104057488D01*
X80377600Y-104255000D02*
X80575112Y-104057488D01*
X75946000Y-91274000D02*
X76046000Y-91274000D01*
X76046000Y-91274000D02*
X80377600Y-95605600D01*
X80377600Y-95605600D02*
X80377600Y-104255000D01*
X98365000Y-94735000D02*
X96699000Y-94735000D01*
X96699000Y-94735000D02*
X93050000Y-98384000D01*
X93050000Y-98384000D02*
X93050000Y-104696999D01*
X76200000Y-108432600D02*
X80377600Y-104255000D01*
D30*
X93050000Y-106680000D02*
X91758000Y-106680000D01*
X91758000Y-106680000D02*
X90805000Y-105727000D01*
X90805000Y-105727000D02*
X90805000Y-105417000D01*
X90805000Y-105417000D02*
X90805000Y-104255000D01*
X90805000Y-104255000D02*
X92525000Y-104255000D01*
X92525000Y-104255000D02*
X93050000Y-104780000D01*
D29*
X128790000Y-99695000D02*
X126949000Y-99695000D01*
X126949000Y-99695000D02*
X126830000Y-99576000D01*
X132420000Y-99700000D02*
X130295000Y-99700000D01*
X130295000Y-99700000D02*
X130290000Y-99695000D01*
X95250000Y-106680000D02*
X96635000Y-106680000D01*
X96635000Y-106680000D02*
X97155000Y-107200000D01*
X137045000Y-101600000D02*
X134800000Y-101600000D01*
X134800000Y-101600000D02*
X134620000Y-101420000D01*
D30*
X138545000Y-101600000D02*
X141015000Y-101600000D01*
X141015000Y-101600000D02*
X141335000Y-101280000D01*
X141335000Y-101280000D02*
X141335000Y-101330000D01*
X141335000Y-101330000D02*
X141605000Y-101600000D01*
D29*
X146685000Y-101600000D02*
X138545000Y-101600000D01*
D30*
X75946000Y-89574000D02*
X80114000Y-89574000D01*
X80114000Y-89574000D02*
X80264000Y-89424000D01*
D29*
X122555000Y-97802000D02*
X124576000Y-97802000D01*
X124576000Y-97802000D02*
X124630000Y-97856000D01*
X120765000Y-97790000D02*
X122543000Y-97790000D01*
X122543000Y-97790000D02*
X122555000Y-97802000D01*
D33*
G36*
X133350000Y-105537000D02*
X133359667Y-105585601D01*
X133387197Y-105626803D01*
X133428399Y-105654333D01*
X133477000Y-105664000D01*
X143541750Y-105664000D01*
X143668750Y-105791000D01*
X146558000Y-105791000D01*
X146558000Y-105771000D01*
X146812000Y-105771000D01*
X146812000Y-105791000D01*
X146832000Y-105791000D01*
X146832000Y-106045000D01*
X146812000Y-106045000D01*
X146812000Y-107702350D01*
X146970750Y-107861100D01*
X149098000Y-107861100D01*
X149098000Y-117348000D01*
X71882000Y-117348000D01*
X71882000Y-109855000D01*
X71969006Y-110292407D01*
X72216777Y-110663223D01*
X73976731Y-112423177D01*
X73914398Y-112573292D01*
X73913604Y-113482719D01*
X74260894Y-114323223D01*
X74903395Y-114966846D01*
X75743292Y-115315602D01*
X76652719Y-115316396D01*
X77493223Y-114969106D01*
X78136846Y-114326605D01*
X78200628Y-114173000D01*
X81280000Y-114173000D01*
X81717407Y-114085994D01*
X81898010Y-113965319D01*
X99313604Y-113965319D01*
X99660894Y-114805823D01*
X100303395Y-115449446D01*
X101143292Y-115798202D01*
X102052719Y-115798996D01*
X102893223Y-115451706D01*
X103536846Y-114809205D01*
X103885602Y-113969308D01*
X103885605Y-113965319D01*
X121538604Y-113965319D01*
X121885894Y-114805823D01*
X122528395Y-115449446D01*
X123368292Y-115798202D01*
X124277719Y-115798996D01*
X125118223Y-115451706D01*
X125761846Y-114809205D01*
X126110602Y-113969308D01*
X126111396Y-113059881D01*
X125764106Y-112219377D01*
X125121605Y-111575754D01*
X124281708Y-111226998D01*
X123372281Y-111226204D01*
X122531777Y-111573494D01*
X121888154Y-112215995D01*
X121539398Y-113055892D01*
X121538604Y-113965319D01*
X103885605Y-113965319D01*
X103886396Y-113059881D01*
X103539106Y-112219377D01*
X102896605Y-111575754D01*
X102056708Y-111226998D01*
X101147281Y-111226204D01*
X100306777Y-111573494D01*
X99663154Y-112215995D01*
X99314398Y-113055892D01*
X99313604Y-113965319D01*
X81898010Y-113965319D01*
X82088223Y-113838223D01*
X85315927Y-110610519D01*
X85789114Y-110807003D01*
X86925898Y-110807995D01*
X87976529Y-110373883D01*
X88781058Y-109570757D01*
X89023974Y-108985750D01*
X96145000Y-108985750D01*
X96145000Y-109226309D01*
X96241673Y-109459698D01*
X96420301Y-109638327D01*
X96653690Y-109735000D01*
X96869250Y-109735000D01*
X97028000Y-109576250D01*
X97028000Y-108827000D01*
X97282000Y-108827000D01*
X97282000Y-109576250D01*
X97440750Y-109735000D01*
X97656310Y-109735000D01*
X97889699Y-109638327D01*
X98068327Y-109459698D01*
X98165000Y-109226309D01*
X98165000Y-108985750D01*
X98006250Y-108827000D01*
X97282000Y-108827000D01*
X97028000Y-108827000D01*
X96303750Y-108827000D01*
X96145000Y-108985750D01*
X89023974Y-108985750D01*
X89217003Y-108520886D01*
X89217995Y-107384102D01*
X88783883Y-106333471D01*
X87980757Y-105528942D01*
X87189753Y-105200488D01*
X88811209Y-105200488D01*
X88976593Y-105310994D01*
X89414000Y-105398000D01*
X89789000Y-105398000D01*
X89789000Y-105727000D01*
X89835661Y-105961580D01*
X89866338Y-106115807D01*
X90086580Y-106445420D01*
X91039580Y-107398421D01*
X91369193Y-107618662D01*
X91758000Y-107696000D01*
X93050000Y-107696000D01*
X93268992Y-107652440D01*
X93580000Y-107652440D01*
X93827765Y-107603157D01*
X94037809Y-107462809D01*
X94150000Y-107294905D01*
X94262191Y-107462809D01*
X94472235Y-107603157D01*
X94673789Y-107643248D01*
X94812593Y-107735994D01*
X95250000Y-107823000D01*
X96161554Y-107823000D01*
X96180732Y-107842178D01*
X96181843Y-107847765D01*
X96242873Y-107939102D01*
X96241673Y-107940302D01*
X96145000Y-108173691D01*
X96145000Y-108414250D01*
X96303750Y-108573000D01*
X97028000Y-108573000D01*
X97028000Y-108553000D01*
X97282000Y-108553000D01*
X97282000Y-108573000D01*
X98006250Y-108573000D01*
X98165000Y-108414250D01*
X98165000Y-108173691D01*
X98068327Y-107940302D01*
X98067127Y-107939102D01*
X98128157Y-107847765D01*
X98152623Y-107724766D01*
X98210994Y-107637407D01*
X98298000Y-107200000D01*
X98210994Y-106762593D01*
X98152623Y-106675234D01*
X98128157Y-106552235D01*
X97987809Y-106342191D01*
X97777765Y-106201843D01*
X97772178Y-106200732D01*
X97443223Y-105871777D01*
X97072407Y-105624006D01*
X96635000Y-105537000D01*
X96255054Y-105537000D01*
X96347932Y-105398000D01*
X99060000Y-105398000D01*
X99497407Y-105310994D01*
X99542088Y-105281139D01*
X99593061Y-105271000D01*
X102564160Y-105271000D01*
X103421580Y-106128421D01*
X103751193Y-106348662D01*
X104140000Y-106426000D01*
X127617000Y-106426000D01*
X127941300Y-106361493D01*
X128005807Y-106348662D01*
X128222681Y-106203750D01*
X143510000Y-106203750D01*
X143510000Y-107352409D01*
X143606673Y-107585798D01*
X143785301Y-107764427D01*
X144018690Y-107861100D01*
X146399250Y-107861100D01*
X146558000Y-107702350D01*
X146558000Y-106045000D01*
X143668750Y-106045000D01*
X143510000Y-106203750D01*
X128222681Y-106203750D01*
X128335420Y-106128420D01*
X131008421Y-103455420D01*
X131228662Y-103125807D01*
X131255523Y-102990765D01*
X131304807Y-102743000D01*
X131697678Y-102743000D01*
X131720000Y-102747440D01*
X133120000Y-102747440D01*
X133350000Y-102701691D01*
X133350000Y-105537000D01*
X133350000Y-105537000D01*
G37*
X133350000Y-105537000D02*
X133359667Y-105585601D01*
X133387197Y-105626803D01*
X133428399Y-105654333D01*
X133477000Y-105664000D01*
X143541750Y-105664000D01*
X143668750Y-105791000D01*
X146558000Y-105791000D01*
X146558000Y-105771000D01*
X146812000Y-105771000D01*
X146812000Y-105791000D01*
X146832000Y-105791000D01*
X146832000Y-106045000D01*
X146812000Y-106045000D01*
X146812000Y-107702350D01*
X146970750Y-107861100D01*
X149098000Y-107861100D01*
X149098000Y-117348000D01*
X71882000Y-117348000D01*
X71882000Y-109855000D01*
X71969006Y-110292407D01*
X72216777Y-110663223D01*
X73976731Y-112423177D01*
X73914398Y-112573292D01*
X73913604Y-113482719D01*
X74260894Y-114323223D01*
X74903395Y-114966846D01*
X75743292Y-115315602D01*
X76652719Y-115316396D01*
X77493223Y-114969106D01*
X78136846Y-114326605D01*
X78200628Y-114173000D01*
X81280000Y-114173000D01*
X81717407Y-114085994D01*
X81898010Y-113965319D01*
X99313604Y-113965319D01*
X99660894Y-114805823D01*
X100303395Y-115449446D01*
X101143292Y-115798202D01*
X102052719Y-115798996D01*
X102893223Y-115451706D01*
X103536846Y-114809205D01*
X103885602Y-113969308D01*
X103885605Y-113965319D01*
X121538604Y-113965319D01*
X121885894Y-114805823D01*
X122528395Y-115449446D01*
X123368292Y-115798202D01*
X124277719Y-115798996D01*
X125118223Y-115451706D01*
X125761846Y-114809205D01*
X126110602Y-113969308D01*
X126111396Y-113059881D01*
X125764106Y-112219377D01*
X125121605Y-111575754D01*
X124281708Y-111226998D01*
X123372281Y-111226204D01*
X122531777Y-111573494D01*
X121888154Y-112215995D01*
X121539398Y-113055892D01*
X121538604Y-113965319D01*
X103885605Y-113965319D01*
X103886396Y-113059881D01*
X103539106Y-112219377D01*
X102896605Y-111575754D01*
X102056708Y-111226998D01*
X101147281Y-111226204D01*
X100306777Y-111573494D01*
X99663154Y-112215995D01*
X99314398Y-113055892D01*
X99313604Y-113965319D01*
X81898010Y-113965319D01*
X82088223Y-113838223D01*
X85315927Y-110610519D01*
X85789114Y-110807003D01*
X86925898Y-110807995D01*
X87976529Y-110373883D01*
X88781058Y-109570757D01*
X89023974Y-108985750D01*
X96145000Y-108985750D01*
X96145000Y-109226309D01*
X96241673Y-109459698D01*
X96420301Y-109638327D01*
X96653690Y-109735000D01*
X96869250Y-109735000D01*
X97028000Y-109576250D01*
X97028000Y-108827000D01*
X97282000Y-108827000D01*
X97282000Y-109576250D01*
X97440750Y-109735000D01*
X97656310Y-109735000D01*
X97889699Y-109638327D01*
X98068327Y-109459698D01*
X98165000Y-109226309D01*
X98165000Y-108985750D01*
X98006250Y-108827000D01*
X97282000Y-108827000D01*
X97028000Y-108827000D01*
X96303750Y-108827000D01*
X96145000Y-108985750D01*
X89023974Y-108985750D01*
X89217003Y-108520886D01*
X89217995Y-107384102D01*
X88783883Y-106333471D01*
X87980757Y-105528942D01*
X87189753Y-105200488D01*
X88811209Y-105200488D01*
X88976593Y-105310994D01*
X89414000Y-105398000D01*
X89789000Y-105398000D01*
X89789000Y-105727000D01*
X89835661Y-105961580D01*
X89866338Y-106115807D01*
X90086580Y-106445420D01*
X91039580Y-107398421D01*
X91369193Y-107618662D01*
X91758000Y-107696000D01*
X93050000Y-107696000D01*
X93268992Y-107652440D01*
X93580000Y-107652440D01*
X93827765Y-107603157D01*
X94037809Y-107462809D01*
X94150000Y-107294905D01*
X94262191Y-107462809D01*
X94472235Y-107603157D01*
X94673789Y-107643248D01*
X94812593Y-107735994D01*
X95250000Y-107823000D01*
X96161554Y-107823000D01*
X96180732Y-107842178D01*
X96181843Y-107847765D01*
X96242873Y-107939102D01*
X96241673Y-107940302D01*
X96145000Y-108173691D01*
X96145000Y-108414250D01*
X96303750Y-108573000D01*
X97028000Y-108573000D01*
X97028000Y-108553000D01*
X97282000Y-108553000D01*
X97282000Y-108573000D01*
X98006250Y-108573000D01*
X98165000Y-108414250D01*
X98165000Y-108173691D01*
X98068327Y-107940302D01*
X98067127Y-107939102D01*
X98128157Y-107847765D01*
X98152623Y-107724766D01*
X98210994Y-107637407D01*
X98298000Y-107200000D01*
X98210994Y-106762593D01*
X98152623Y-106675234D01*
X98128157Y-106552235D01*
X97987809Y-106342191D01*
X97777765Y-106201843D01*
X97772178Y-106200732D01*
X97443223Y-105871777D01*
X97072407Y-105624006D01*
X96635000Y-105537000D01*
X96255054Y-105537000D01*
X96347932Y-105398000D01*
X99060000Y-105398000D01*
X99497407Y-105310994D01*
X99542088Y-105281139D01*
X99593061Y-105271000D01*
X102564160Y-105271000D01*
X103421580Y-106128421D01*
X103751193Y-106348662D01*
X104140000Y-106426000D01*
X127617000Y-106426000D01*
X127941300Y-106361493D01*
X128005807Y-106348662D01*
X128222681Y-106203750D01*
X143510000Y-106203750D01*
X143510000Y-107352409D01*
X143606673Y-107585798D01*
X143785301Y-107764427D01*
X144018690Y-107861100D01*
X146399250Y-107861100D01*
X146558000Y-107702350D01*
X146558000Y-106045000D01*
X143668750Y-106045000D01*
X143510000Y-106203750D01*
X128222681Y-106203750D01*
X128335420Y-106128420D01*
X131008421Y-103455420D01*
X131228662Y-103125807D01*
X131255523Y-102990765D01*
X131304807Y-102743000D01*
X131697678Y-102743000D01*
X131720000Y-102747440D01*
X133120000Y-102747440D01*
X133350000Y-102701691D01*
X133350000Y-105537000D01*
G36*
X84743471Y-105526117D02*
X83938942Y-106329243D01*
X83502997Y-107379114D01*
X83502005Y-108515898D01*
X83699553Y-108994001D01*
X80806554Y-111887000D01*
X78201177Y-111887000D01*
X78139106Y-111736777D01*
X77496605Y-111093154D01*
X76656708Y-110744398D01*
X75747281Y-110743604D01*
X75593565Y-110807119D01*
X75335188Y-110548742D01*
X75743292Y-110718202D01*
X76652719Y-110718996D01*
X77493223Y-110371706D01*
X78136846Y-109729205D01*
X78485602Y-108889308D01*
X78486396Y-107979881D01*
X78422881Y-107826165D01*
X81048558Y-105200488D01*
X85531553Y-105200488D01*
X84743471Y-105526117D01*
X84743471Y-105526117D01*
G37*
X84743471Y-105526117D02*
X83938942Y-106329243D01*
X83502997Y-107379114D01*
X83502005Y-108515898D01*
X83699553Y-108994001D01*
X80806554Y-111887000D01*
X78201177Y-111887000D01*
X78139106Y-111736777D01*
X77496605Y-111093154D01*
X76656708Y-110744398D01*
X75747281Y-110743604D01*
X75593565Y-110807119D01*
X75335188Y-110548742D01*
X75743292Y-110718202D01*
X76652719Y-110718996D01*
X77493223Y-110371706D01*
X78136846Y-109729205D01*
X78485602Y-108889308D01*
X78486396Y-107979881D01*
X78422881Y-107826165D01*
X81048558Y-105200488D01*
X85531553Y-105200488D01*
X84743471Y-105526117D01*
G36*
X149098000Y-95211900D02*
X146970750Y-95211900D01*
X146812000Y-95370650D01*
X146812000Y-97028000D01*
X146832000Y-97028000D01*
X146832000Y-97282000D01*
X146812000Y-97282000D01*
X146812000Y-98939350D01*
X146970750Y-99098100D01*
X149098000Y-99098100D01*
X149098000Y-99314000D01*
X142420000Y-99314000D01*
X142420000Y-99252998D01*
X142261252Y-99252998D01*
X142420000Y-99094250D01*
X142420000Y-98853690D01*
X142323327Y-98620301D01*
X142144698Y-98441673D01*
X141911309Y-98345000D01*
X141620750Y-98345000D01*
X141462000Y-98503750D01*
X141462000Y-99253000D01*
X141482000Y-99253000D01*
X141482000Y-99314000D01*
X141188000Y-99314000D01*
X141188000Y-99253000D01*
X141208000Y-99253000D01*
X141208000Y-98503750D01*
X141049250Y-98345000D01*
X140758691Y-98345000D01*
X140525302Y-98441673D01*
X140346673Y-98620301D01*
X140250000Y-98853690D01*
X140250000Y-99094250D01*
X140408748Y-99252998D01*
X140250000Y-99252998D01*
X140250000Y-99314000D01*
X139943061Y-99314000D01*
X139785000Y-99282560D01*
X138885000Y-99282560D01*
X138726939Y-99314000D01*
X136271000Y-99314000D01*
X136271000Y-98171000D01*
X136261333Y-98122399D01*
X136233803Y-98081197D01*
X136192601Y-98053667D01*
X136144000Y-98044000D01*
X128905000Y-98044000D01*
X128905000Y-97440750D01*
X143510000Y-97440750D01*
X143510000Y-98589409D01*
X143606673Y-98822798D01*
X143785301Y-99001427D01*
X144018690Y-99098100D01*
X146399250Y-99098100D01*
X146558000Y-98939350D01*
X146558000Y-97282000D01*
X143668750Y-97282000D01*
X143510000Y-97440750D01*
X128905000Y-97440750D01*
X128905000Y-96266000D01*
X128895333Y-96217399D01*
X128867803Y-96176197D01*
X128826601Y-96148667D01*
X128778000Y-96139000D01*
X113157000Y-96139000D01*
X113157000Y-95720591D01*
X143510000Y-95720591D01*
X143510000Y-96869250D01*
X143668750Y-97028000D01*
X146558000Y-97028000D01*
X146558000Y-95370650D01*
X146399250Y-95211900D01*
X144018690Y-95211900D01*
X143785301Y-95308573D01*
X143606673Y-95487202D01*
X143510000Y-95720591D01*
X113157000Y-95720591D01*
X113157000Y-92202000D01*
X113147333Y-92153399D01*
X113119803Y-92112197D01*
X113078601Y-92084667D01*
X113030000Y-92075000D01*
X110236000Y-92075000D01*
X110187399Y-92084667D01*
X110146197Y-92112197D01*
X110118667Y-92153399D01*
X110109000Y-92202000D01*
X110109000Y-97758560D01*
X109675000Y-97758560D01*
X109427235Y-97807843D01*
X109217191Y-97948191D01*
X109076843Y-98158235D01*
X109027560Y-98406000D01*
X109027560Y-99206000D01*
X109076843Y-99453765D01*
X109217191Y-99663809D01*
X109427235Y-99804157D01*
X109675000Y-99853440D01*
X110575000Y-99853440D01*
X110822765Y-99804157D01*
X111032809Y-99663809D01*
X111113219Y-99543469D01*
X111198750Y-99629000D01*
X111998000Y-99629000D01*
X111998000Y-99609000D01*
X112252000Y-99609000D01*
X112252000Y-99629000D01*
X113051250Y-99629000D01*
X113210000Y-99470250D01*
X113210000Y-99314000D01*
X116465000Y-99314000D01*
X116465000Y-99429002D01*
X116623748Y-99429002D01*
X116465000Y-99587750D01*
X116465000Y-99828309D01*
X116561673Y-100061698D01*
X116740301Y-100240327D01*
X116973690Y-100337000D01*
X117189250Y-100337000D01*
X117348000Y-100178250D01*
X117348000Y-99429000D01*
X117328000Y-99429000D01*
X117328000Y-99314000D01*
X117622000Y-99314000D01*
X117622000Y-99429000D01*
X117602000Y-99429000D01*
X117602000Y-100178250D01*
X117760750Y-100337000D01*
X117976310Y-100337000D01*
X118209699Y-100240327D01*
X118388327Y-100061698D01*
X118485000Y-99828309D01*
X118485000Y-99587750D01*
X118326252Y-99429002D01*
X118485000Y-99429002D01*
X118485000Y-99314000D01*
X121545000Y-99314000D01*
X121545000Y-99429002D01*
X121703748Y-99429002D01*
X121545000Y-99587750D01*
X121545000Y-99828309D01*
X121641673Y-100061698D01*
X121820301Y-100240327D01*
X122053690Y-100337000D01*
X122269250Y-100337000D01*
X122428000Y-100178250D01*
X122428000Y-99429000D01*
X122408000Y-99429000D01*
X122408000Y-99314000D01*
X122702000Y-99314000D01*
X122702000Y-99429000D01*
X122682000Y-99429000D01*
X122682000Y-100178250D01*
X122840750Y-100337000D01*
X123056310Y-100337000D01*
X123282560Y-100243284D01*
X123282560Y-100256000D01*
X123331843Y-100503765D01*
X123389464Y-100590000D01*
X123360750Y-100590000D01*
X123202000Y-100748750D01*
X123202000Y-101473000D01*
X123222000Y-101473000D01*
X123222000Y-101727000D01*
X123202000Y-101727000D01*
X123202000Y-102451250D01*
X123360750Y-102610000D01*
X123559000Y-102610000D01*
X123559000Y-102737000D01*
X123609477Y-102990765D01*
X123636338Y-103125807D01*
X123856580Y-103455420D01*
X124079000Y-103677840D01*
X124079000Y-104394000D01*
X104560841Y-104394000D01*
X103703420Y-103536580D01*
X103373807Y-103316338D01*
X103309300Y-103303507D01*
X102985000Y-103239000D01*
X100070000Y-103239000D01*
X100070000Y-103040750D01*
X99911250Y-102882000D01*
X99187000Y-102882000D01*
X99187000Y-102902000D01*
X98933000Y-102902000D01*
X98933000Y-102882000D01*
X98208750Y-102882000D01*
X98107500Y-102983250D01*
X98006250Y-102882000D01*
X97282000Y-102882000D01*
X97282000Y-102902000D01*
X97028000Y-102902000D01*
X97028000Y-102882000D01*
X96303750Y-102882000D01*
X96145000Y-103040750D01*
X96145000Y-103112000D01*
X95775000Y-103112000D01*
X95337593Y-103199006D01*
X94966777Y-103446777D01*
X94577686Y-103835868D01*
X94472235Y-103856843D01*
X94262191Y-103997191D01*
X94193000Y-104100742D01*
X94193000Y-102228691D01*
X96145000Y-102228691D01*
X96145000Y-102469250D01*
X96303750Y-102628000D01*
X97028000Y-102628000D01*
X97028000Y-101878750D01*
X97282000Y-101878750D01*
X97282000Y-102628000D01*
X98006250Y-102628000D01*
X98107500Y-102526750D01*
X98208750Y-102628000D01*
X98933000Y-102628000D01*
X98933000Y-101878750D01*
X99187000Y-101878750D01*
X99187000Y-102628000D01*
X99911250Y-102628000D01*
X100070000Y-102469250D01*
X100070000Y-102228691D01*
X99973327Y-101995302D01*
X99863776Y-101885750D01*
X122040000Y-101885750D01*
X122040000Y-102101310D01*
X122136673Y-102334699D01*
X122315302Y-102513327D01*
X122548691Y-102610000D01*
X122789250Y-102610000D01*
X122948000Y-102451250D01*
X122948000Y-101727000D01*
X122198750Y-101727000D01*
X122040000Y-101885750D01*
X99863776Y-101885750D01*
X99794699Y-101816673D01*
X99561310Y-101720000D01*
X99345750Y-101720000D01*
X99187000Y-101878750D01*
X98933000Y-101878750D01*
X98774250Y-101720000D01*
X98558690Y-101720000D01*
X98325301Y-101816673D01*
X98146673Y-101995302D01*
X98107500Y-102089874D01*
X98068327Y-101995302D01*
X97889699Y-101816673D01*
X97656310Y-101720000D01*
X97440750Y-101720000D01*
X97282000Y-101878750D01*
X97028000Y-101878750D01*
X96869250Y-101720000D01*
X96653690Y-101720000D01*
X96420301Y-101816673D01*
X96241673Y-101995302D01*
X96145000Y-102228691D01*
X94193000Y-102228691D01*
X94193000Y-101098690D01*
X122040000Y-101098690D01*
X122040000Y-101314250D01*
X122198750Y-101473000D01*
X122948000Y-101473000D01*
X122948000Y-100748750D01*
X122789250Y-100590000D01*
X122548691Y-100590000D01*
X122315302Y-100686673D01*
X122136673Y-100865301D01*
X122040000Y-101098690D01*
X94193000Y-101098690D01*
X94193000Y-100041750D01*
X111040000Y-100041750D01*
X111040000Y-100282310D01*
X111136673Y-100515699D01*
X111315302Y-100694327D01*
X111548691Y-100791000D01*
X111839250Y-100791000D01*
X111998000Y-100632250D01*
X111998000Y-99883000D01*
X112252000Y-99883000D01*
X112252000Y-100632250D01*
X112410750Y-100791000D01*
X112701309Y-100791000D01*
X112934698Y-100694327D01*
X113113327Y-100515699D01*
X113210000Y-100282310D01*
X113210000Y-100041750D01*
X113051250Y-99883000D01*
X112252000Y-99883000D01*
X111998000Y-99883000D01*
X111198750Y-99883000D01*
X111040000Y-100041750D01*
X94193000Y-100041750D01*
X94193000Y-98857446D01*
X94224696Y-98825750D01*
X105670000Y-98825750D01*
X105670000Y-99066309D01*
X105766673Y-99299698D01*
X105945301Y-99478327D01*
X106178690Y-99575000D01*
X106394250Y-99575000D01*
X106553000Y-99416250D01*
X106553000Y-98667000D01*
X106807000Y-98667000D01*
X106807000Y-99416250D01*
X106965750Y-99575000D01*
X107181310Y-99575000D01*
X107414699Y-99478327D01*
X107593327Y-99299698D01*
X107690000Y-99066309D01*
X107690000Y-98825750D01*
X107531250Y-98667000D01*
X106807000Y-98667000D01*
X106553000Y-98667000D01*
X105828750Y-98667000D01*
X105670000Y-98825750D01*
X94224696Y-98825750D01*
X97172446Y-95878000D01*
X97309858Y-95878000D01*
X97320334Y-95885000D01*
X97257191Y-95927191D01*
X97116843Y-96137235D01*
X97067560Y-96385000D01*
X97067560Y-97685000D01*
X97116843Y-97932765D01*
X97257191Y-98142809D01*
X97467235Y-98283157D01*
X97715000Y-98332440D01*
X99015000Y-98332440D01*
X99262765Y-98283157D01*
X99472809Y-98142809D01*
X99613157Y-97932765D01*
X99662440Y-97685000D01*
X99662440Y-97174401D01*
X99935841Y-96901000D01*
X102270743Y-96901000D01*
X102316843Y-97132765D01*
X102457191Y-97342809D01*
X102667235Y-97483157D01*
X102915000Y-97532440D01*
X104215000Y-97532440D01*
X104462765Y-97483157D01*
X104672809Y-97342809D01*
X104813157Y-97132765D01*
X104833996Y-97028000D01*
X105026554Y-97028000D01*
X105748173Y-97749619D01*
X105767873Y-97779102D01*
X105766673Y-97780302D01*
X105670000Y-98013691D01*
X105670000Y-98254250D01*
X105828750Y-98413000D01*
X106553000Y-98413000D01*
X106553000Y-98393000D01*
X106807000Y-98393000D01*
X106807000Y-98413000D01*
X107531250Y-98413000D01*
X107690000Y-98254250D01*
X107690000Y-98013691D01*
X107593327Y-97780302D01*
X107592127Y-97779102D01*
X107653157Y-97687765D01*
X107677623Y-97564766D01*
X107735994Y-97477407D01*
X107823000Y-97040000D01*
X107823000Y-96180347D01*
X107868157Y-96112765D01*
X107917440Y-95865000D01*
X107917440Y-93365000D01*
X107868157Y-93117235D01*
X107727809Y-92907191D01*
X107517765Y-92766843D01*
X107270000Y-92717560D01*
X106270000Y-92717560D01*
X106022235Y-92766843D01*
X105812191Y-92907191D01*
X105671843Y-93117235D01*
X105622560Y-93365000D01*
X105622560Y-94145994D01*
X105026554Y-94742000D01*
X104833996Y-94742000D01*
X104813157Y-94637235D01*
X104672809Y-94427191D01*
X104462765Y-94286843D01*
X104215000Y-94237560D01*
X102915000Y-94237560D01*
X102667235Y-94286843D01*
X102457191Y-94427191D01*
X102316843Y-94637235D01*
X102270743Y-94869000D01*
X99662440Y-94869000D01*
X99662440Y-94085000D01*
X99613157Y-93837235D01*
X99472809Y-93627191D01*
X99262765Y-93486843D01*
X99015000Y-93437560D01*
X97715000Y-93437560D01*
X97467235Y-93486843D01*
X97309858Y-93592000D01*
X96699000Y-93592000D01*
X96261593Y-93679006D01*
X95890777Y-93926777D01*
X92241777Y-97575777D01*
X91994006Y-97946593D01*
X91907000Y-98384000D01*
X91907000Y-103239000D01*
X91815000Y-103239000D01*
X91815000Y-103040750D01*
X91656250Y-102882000D01*
X90932000Y-102882000D01*
X90932000Y-102902000D01*
X90678000Y-102902000D01*
X90678000Y-102882000D01*
X89953750Y-102882000D01*
X89795000Y-103040750D01*
X89795000Y-103095777D01*
X89653895Y-103001494D01*
X89216488Y-102914488D01*
X81520600Y-102914488D01*
X81520600Y-102228691D01*
X89795000Y-102228691D01*
X89795000Y-102469250D01*
X89953750Y-102628000D01*
X90678000Y-102628000D01*
X90678000Y-101878750D01*
X90932000Y-101878750D01*
X90932000Y-102628000D01*
X91656250Y-102628000D01*
X91815000Y-102469250D01*
X91815000Y-102228691D01*
X91718327Y-101995302D01*
X91539699Y-101816673D01*
X91306310Y-101720000D01*
X91090750Y-101720000D01*
X90932000Y-101878750D01*
X90678000Y-101878750D01*
X90519250Y-101720000D01*
X90303690Y-101720000D01*
X90070301Y-101816673D01*
X89891673Y-101995302D01*
X89795000Y-102228691D01*
X81520600Y-102228691D01*
X81520600Y-97285621D01*
X84503984Y-97285621D01*
X84751871Y-97679465D01*
X85803998Y-98109937D01*
X86940772Y-98105009D01*
X87968129Y-97679465D01*
X88216016Y-97285621D01*
X86360000Y-95429605D01*
X84503984Y-97285621D01*
X81520600Y-97285621D01*
X81520600Y-95605600D01*
X81433594Y-95168193D01*
X81185823Y-94797377D01*
X81082444Y-94693998D01*
X83500063Y-94693998D01*
X83504991Y-95830772D01*
X83930535Y-96858129D01*
X84324379Y-97106016D01*
X86180395Y-95250000D01*
X86539605Y-95250000D01*
X88395621Y-97106016D01*
X88789465Y-96858129D01*
X89219937Y-95806002D01*
X89215009Y-94669228D01*
X88789465Y-93641871D01*
X88395621Y-93393984D01*
X86539605Y-95250000D01*
X86180395Y-95250000D01*
X84324379Y-93393984D01*
X83930535Y-93641871D01*
X83500063Y-94693998D01*
X81082444Y-94693998D01*
X79602825Y-93214379D01*
X84503984Y-93214379D01*
X86360000Y-95070395D01*
X88216016Y-93214379D01*
X87968129Y-92820535D01*
X86916002Y-92390063D01*
X85779228Y-92394991D01*
X84751871Y-92820535D01*
X84503984Y-93214379D01*
X79602825Y-93214379D01*
X78098196Y-91709750D01*
X79004000Y-91709750D01*
X79004000Y-92050309D01*
X79100673Y-92283698D01*
X79279301Y-92462327D01*
X79512690Y-92559000D01*
X79978250Y-92559000D01*
X80137000Y-92400250D01*
X80137000Y-91551000D01*
X80391000Y-91551000D01*
X80391000Y-92400250D01*
X80549750Y-92559000D01*
X81015310Y-92559000D01*
X81248699Y-92462327D01*
X81427327Y-92283698D01*
X81524000Y-92050309D01*
X81524000Y-91709750D01*
X81365250Y-91551000D01*
X80391000Y-91551000D01*
X80137000Y-91551000D01*
X79162750Y-91551000D01*
X79004000Y-91709750D01*
X78098196Y-91709750D01*
X76978446Y-90590000D01*
X79090029Y-90590000D01*
X79004000Y-90797691D01*
X79004000Y-91138250D01*
X79162750Y-91297000D01*
X80137000Y-91297000D01*
X80137000Y-91277000D01*
X80391000Y-91277000D01*
X80391000Y-91297000D01*
X81365250Y-91297000D01*
X81524000Y-91138250D01*
X81524000Y-90797691D01*
X81427327Y-90564302D01*
X81285680Y-90422654D01*
X81346809Y-90381809D01*
X81487157Y-90171765D01*
X81493451Y-90140119D01*
X99313604Y-90140119D01*
X99660894Y-90980623D01*
X100303395Y-91624246D01*
X101143292Y-91973002D01*
X102052719Y-91973796D01*
X102893223Y-91626506D01*
X103536846Y-90984005D01*
X103885602Y-90144108D01*
X103885605Y-90140119D01*
X121538604Y-90140119D01*
X121885894Y-90980623D01*
X122528395Y-91624246D01*
X123368292Y-91973002D01*
X124277719Y-91973796D01*
X125118223Y-91626506D01*
X125761846Y-90984005D01*
X126110602Y-90144108D01*
X126111396Y-89234681D01*
X125764106Y-88394177D01*
X125121605Y-87750554D01*
X124281708Y-87401798D01*
X123372281Y-87401004D01*
X122531777Y-87748294D01*
X121888154Y-88390795D01*
X121539398Y-89230692D01*
X121538604Y-90140119D01*
X103885605Y-90140119D01*
X103886396Y-89234681D01*
X103539106Y-88394177D01*
X102896605Y-87750554D01*
X102056708Y-87401798D01*
X101147281Y-87401004D01*
X100306777Y-87748294D01*
X99663154Y-88390795D01*
X99314398Y-89230692D01*
X99313604Y-90140119D01*
X81493451Y-90140119D01*
X81536440Y-89924000D01*
X81536440Y-88924000D01*
X81487157Y-88676235D01*
X81346809Y-88466191D01*
X81136765Y-88325843D01*
X80889000Y-88276560D01*
X79639000Y-88276560D01*
X79391235Y-88325843D01*
X79181191Y-88466191D01*
X79119846Y-88558000D01*
X75946000Y-88558000D01*
X75601324Y-88626560D01*
X75546000Y-88626560D01*
X75298235Y-88675843D01*
X75088191Y-88816191D01*
X74947843Y-89026235D01*
X74898560Y-89274000D01*
X74898560Y-89874000D01*
X74947843Y-90121765D01*
X75088191Y-90331809D01*
X75213232Y-90415360D01*
X75137777Y-90465777D01*
X75116916Y-90496997D01*
X75088191Y-90516191D01*
X74947843Y-90726235D01*
X74941103Y-90760121D01*
X74890006Y-90836593D01*
X74803000Y-91274000D01*
X74890006Y-91711407D01*
X74941103Y-91787879D01*
X74947843Y-91821765D01*
X75088191Y-92031809D01*
X75116916Y-92051003D01*
X75137777Y-92082223D01*
X75439143Y-92283589D01*
X76920554Y-93765000D01*
X76485750Y-93765000D01*
X76327000Y-93923750D01*
X76327000Y-95123000D01*
X77526250Y-95123000D01*
X77685000Y-94964250D01*
X77685000Y-94529446D01*
X79234600Y-96079046D01*
X79234600Y-103781554D01*
X78316142Y-104700012D01*
X78485602Y-104291908D01*
X78486396Y-103382481D01*
X78139106Y-102541977D01*
X77496605Y-101898354D01*
X76656708Y-101549598D01*
X75747281Y-101548804D01*
X75593565Y-101612319D01*
X74803000Y-100821754D01*
X74803000Y-96438760D01*
X74811673Y-96459698D01*
X74990301Y-96638327D01*
X75223690Y-96735000D01*
X75914250Y-96735000D01*
X76073000Y-96576250D01*
X76073000Y-95377000D01*
X76327000Y-95377000D01*
X76327000Y-96576250D01*
X76485750Y-96735000D01*
X77176310Y-96735000D01*
X77409699Y-96638327D01*
X77588327Y-96459698D01*
X77685000Y-96226309D01*
X77685000Y-95535750D01*
X77526250Y-95377000D01*
X76327000Y-95377000D01*
X76073000Y-95377000D01*
X76053000Y-95377000D01*
X76053000Y-95123000D01*
X76073000Y-95123000D01*
X76073000Y-93923750D01*
X75914250Y-93765000D01*
X75223690Y-93765000D01*
X74990301Y-93861673D01*
X74811673Y-94040302D01*
X74739403Y-94214777D01*
X74710054Y-94170853D01*
X74228285Y-93848946D01*
X73660000Y-93735907D01*
X73091715Y-93848946D01*
X72609946Y-94170853D01*
X72288039Y-94652622D01*
X72175000Y-95220907D01*
X72175000Y-95279093D01*
X72288039Y-95847378D01*
X72517000Y-96190043D01*
X72517000Y-101295200D01*
X72604006Y-101732607D01*
X72851777Y-102103423D01*
X73976731Y-103228377D01*
X73914398Y-103378492D01*
X73913604Y-104287919D01*
X73936445Y-104343199D01*
X73583801Y-104343199D01*
X73146394Y-104430205D01*
X72775578Y-104677976D01*
X72216777Y-105236777D01*
X71969006Y-105607593D01*
X71882000Y-106045000D01*
X71882000Y-89104971D01*
X72624821Y-89104971D01*
X72782058Y-89485515D01*
X73072954Y-89776919D01*
X73453223Y-89934820D01*
X73864971Y-89935179D01*
X74245515Y-89777942D01*
X74536919Y-89487046D01*
X74694820Y-89106777D01*
X74695179Y-88695029D01*
X74537942Y-88314485D01*
X74247046Y-88023081D01*
X73866777Y-87865180D01*
X73455029Y-87864821D01*
X73074485Y-88022058D01*
X72783081Y-88312954D01*
X72625180Y-88693223D01*
X72624821Y-89104971D01*
X71882000Y-89104971D01*
X71882000Y-85852000D01*
X149098000Y-85852000D01*
X149098000Y-95211900D01*
X149098000Y-95211900D01*
G37*
X149098000Y-95211900D02*
X146970750Y-95211900D01*
X146812000Y-95370650D01*
X146812000Y-97028000D01*
X146832000Y-97028000D01*
X146832000Y-97282000D01*
X146812000Y-97282000D01*
X146812000Y-98939350D01*
X146970750Y-99098100D01*
X149098000Y-99098100D01*
X149098000Y-99314000D01*
X142420000Y-99314000D01*
X142420000Y-99252998D01*
X142261252Y-99252998D01*
X142420000Y-99094250D01*
X142420000Y-98853690D01*
X142323327Y-98620301D01*
X142144698Y-98441673D01*
X141911309Y-98345000D01*
X141620750Y-98345000D01*
X141462000Y-98503750D01*
X141462000Y-99253000D01*
X141482000Y-99253000D01*
X141482000Y-99314000D01*
X141188000Y-99314000D01*
X141188000Y-99253000D01*
X141208000Y-99253000D01*
X141208000Y-98503750D01*
X141049250Y-98345000D01*
X140758691Y-98345000D01*
X140525302Y-98441673D01*
X140346673Y-98620301D01*
X140250000Y-98853690D01*
X140250000Y-99094250D01*
X140408748Y-99252998D01*
X140250000Y-99252998D01*
X140250000Y-99314000D01*
X139943061Y-99314000D01*
X139785000Y-99282560D01*
X138885000Y-99282560D01*
X138726939Y-99314000D01*
X136271000Y-99314000D01*
X136271000Y-98171000D01*
X136261333Y-98122399D01*
X136233803Y-98081197D01*
X136192601Y-98053667D01*
X136144000Y-98044000D01*
X128905000Y-98044000D01*
X128905000Y-97440750D01*
X143510000Y-97440750D01*
X143510000Y-98589409D01*
X143606673Y-98822798D01*
X143785301Y-99001427D01*
X144018690Y-99098100D01*
X146399250Y-99098100D01*
X146558000Y-98939350D01*
X146558000Y-97282000D01*
X143668750Y-97282000D01*
X143510000Y-97440750D01*
X128905000Y-97440750D01*
X128905000Y-96266000D01*
X128895333Y-96217399D01*
X128867803Y-96176197D01*
X128826601Y-96148667D01*
X128778000Y-96139000D01*
X113157000Y-96139000D01*
X113157000Y-95720591D01*
X143510000Y-95720591D01*
X143510000Y-96869250D01*
X143668750Y-97028000D01*
X146558000Y-97028000D01*
X146558000Y-95370650D01*
X146399250Y-95211900D01*
X144018690Y-95211900D01*
X143785301Y-95308573D01*
X143606673Y-95487202D01*
X143510000Y-95720591D01*
X113157000Y-95720591D01*
X113157000Y-92202000D01*
X113147333Y-92153399D01*
X113119803Y-92112197D01*
X113078601Y-92084667D01*
X113030000Y-92075000D01*
X110236000Y-92075000D01*
X110187399Y-92084667D01*
X110146197Y-92112197D01*
X110118667Y-92153399D01*
X110109000Y-92202000D01*
X110109000Y-97758560D01*
X109675000Y-97758560D01*
X109427235Y-97807843D01*
X109217191Y-97948191D01*
X109076843Y-98158235D01*
X109027560Y-98406000D01*
X109027560Y-99206000D01*
X109076843Y-99453765D01*
X109217191Y-99663809D01*
X109427235Y-99804157D01*
X109675000Y-99853440D01*
X110575000Y-99853440D01*
X110822765Y-99804157D01*
X111032809Y-99663809D01*
X111113219Y-99543469D01*
X111198750Y-99629000D01*
X111998000Y-99629000D01*
X111998000Y-99609000D01*
X112252000Y-99609000D01*
X112252000Y-99629000D01*
X113051250Y-99629000D01*
X113210000Y-99470250D01*
X113210000Y-99314000D01*
X116465000Y-99314000D01*
X116465000Y-99429002D01*
X116623748Y-99429002D01*
X116465000Y-99587750D01*
X116465000Y-99828309D01*
X116561673Y-100061698D01*
X116740301Y-100240327D01*
X116973690Y-100337000D01*
X117189250Y-100337000D01*
X117348000Y-100178250D01*
X117348000Y-99429000D01*
X117328000Y-99429000D01*
X117328000Y-99314000D01*
X117622000Y-99314000D01*
X117622000Y-99429000D01*
X117602000Y-99429000D01*
X117602000Y-100178250D01*
X117760750Y-100337000D01*
X117976310Y-100337000D01*
X118209699Y-100240327D01*
X118388327Y-100061698D01*
X118485000Y-99828309D01*
X118485000Y-99587750D01*
X118326252Y-99429002D01*
X118485000Y-99429002D01*
X118485000Y-99314000D01*
X121545000Y-99314000D01*
X121545000Y-99429002D01*
X121703748Y-99429002D01*
X121545000Y-99587750D01*
X121545000Y-99828309D01*
X121641673Y-100061698D01*
X121820301Y-100240327D01*
X122053690Y-100337000D01*
X122269250Y-100337000D01*
X122428000Y-100178250D01*
X122428000Y-99429000D01*
X122408000Y-99429000D01*
X122408000Y-99314000D01*
X122702000Y-99314000D01*
X122702000Y-99429000D01*
X122682000Y-99429000D01*
X122682000Y-100178250D01*
X122840750Y-100337000D01*
X123056310Y-100337000D01*
X123282560Y-100243284D01*
X123282560Y-100256000D01*
X123331843Y-100503765D01*
X123389464Y-100590000D01*
X123360750Y-100590000D01*
X123202000Y-100748750D01*
X123202000Y-101473000D01*
X123222000Y-101473000D01*
X123222000Y-101727000D01*
X123202000Y-101727000D01*
X123202000Y-102451250D01*
X123360750Y-102610000D01*
X123559000Y-102610000D01*
X123559000Y-102737000D01*
X123609477Y-102990765D01*
X123636338Y-103125807D01*
X123856580Y-103455420D01*
X124079000Y-103677840D01*
X124079000Y-104394000D01*
X104560841Y-104394000D01*
X103703420Y-103536580D01*
X103373807Y-103316338D01*
X103309300Y-103303507D01*
X102985000Y-103239000D01*
X100070000Y-103239000D01*
X100070000Y-103040750D01*
X99911250Y-102882000D01*
X99187000Y-102882000D01*
X99187000Y-102902000D01*
X98933000Y-102902000D01*
X98933000Y-102882000D01*
X98208750Y-102882000D01*
X98107500Y-102983250D01*
X98006250Y-102882000D01*
X97282000Y-102882000D01*
X97282000Y-102902000D01*
X97028000Y-102902000D01*
X97028000Y-102882000D01*
X96303750Y-102882000D01*
X96145000Y-103040750D01*
X96145000Y-103112000D01*
X95775000Y-103112000D01*
X95337593Y-103199006D01*
X94966777Y-103446777D01*
X94577686Y-103835868D01*
X94472235Y-103856843D01*
X94262191Y-103997191D01*
X94193000Y-104100742D01*
X94193000Y-102228691D01*
X96145000Y-102228691D01*
X96145000Y-102469250D01*
X96303750Y-102628000D01*
X97028000Y-102628000D01*
X97028000Y-101878750D01*
X97282000Y-101878750D01*
X97282000Y-102628000D01*
X98006250Y-102628000D01*
X98107500Y-102526750D01*
X98208750Y-102628000D01*
X98933000Y-102628000D01*
X98933000Y-101878750D01*
X99187000Y-101878750D01*
X99187000Y-102628000D01*
X99911250Y-102628000D01*
X100070000Y-102469250D01*
X100070000Y-102228691D01*
X99973327Y-101995302D01*
X99863776Y-101885750D01*
X122040000Y-101885750D01*
X122040000Y-102101310D01*
X122136673Y-102334699D01*
X122315302Y-102513327D01*
X122548691Y-102610000D01*
X122789250Y-102610000D01*
X122948000Y-102451250D01*
X122948000Y-101727000D01*
X122198750Y-101727000D01*
X122040000Y-101885750D01*
X99863776Y-101885750D01*
X99794699Y-101816673D01*
X99561310Y-101720000D01*
X99345750Y-101720000D01*
X99187000Y-101878750D01*
X98933000Y-101878750D01*
X98774250Y-101720000D01*
X98558690Y-101720000D01*
X98325301Y-101816673D01*
X98146673Y-101995302D01*
X98107500Y-102089874D01*
X98068327Y-101995302D01*
X97889699Y-101816673D01*
X97656310Y-101720000D01*
X97440750Y-101720000D01*
X97282000Y-101878750D01*
X97028000Y-101878750D01*
X96869250Y-101720000D01*
X96653690Y-101720000D01*
X96420301Y-101816673D01*
X96241673Y-101995302D01*
X96145000Y-102228691D01*
X94193000Y-102228691D01*
X94193000Y-101098690D01*
X122040000Y-101098690D01*
X122040000Y-101314250D01*
X122198750Y-101473000D01*
X122948000Y-101473000D01*
X122948000Y-100748750D01*
X122789250Y-100590000D01*
X122548691Y-100590000D01*
X122315302Y-100686673D01*
X122136673Y-100865301D01*
X122040000Y-101098690D01*
X94193000Y-101098690D01*
X94193000Y-100041750D01*
X111040000Y-100041750D01*
X111040000Y-100282310D01*
X111136673Y-100515699D01*
X111315302Y-100694327D01*
X111548691Y-100791000D01*
X111839250Y-100791000D01*
X111998000Y-100632250D01*
X111998000Y-99883000D01*
X112252000Y-99883000D01*
X112252000Y-100632250D01*
X112410750Y-100791000D01*
X112701309Y-100791000D01*
X112934698Y-100694327D01*
X113113327Y-100515699D01*
X113210000Y-100282310D01*
X113210000Y-100041750D01*
X113051250Y-99883000D01*
X112252000Y-99883000D01*
X111998000Y-99883000D01*
X111198750Y-99883000D01*
X111040000Y-100041750D01*
X94193000Y-100041750D01*
X94193000Y-98857446D01*
X94224696Y-98825750D01*
X105670000Y-98825750D01*
X105670000Y-99066309D01*
X105766673Y-99299698D01*
X105945301Y-99478327D01*
X106178690Y-99575000D01*
X106394250Y-99575000D01*
X106553000Y-99416250D01*
X106553000Y-98667000D01*
X106807000Y-98667000D01*
X106807000Y-99416250D01*
X106965750Y-99575000D01*
X107181310Y-99575000D01*
X107414699Y-99478327D01*
X107593327Y-99299698D01*
X107690000Y-99066309D01*
X107690000Y-98825750D01*
X107531250Y-98667000D01*
X106807000Y-98667000D01*
X106553000Y-98667000D01*
X105828750Y-98667000D01*
X105670000Y-98825750D01*
X94224696Y-98825750D01*
X97172446Y-95878000D01*
X97309858Y-95878000D01*
X97320334Y-95885000D01*
X97257191Y-95927191D01*
X97116843Y-96137235D01*
X97067560Y-96385000D01*
X97067560Y-97685000D01*
X97116843Y-97932765D01*
X97257191Y-98142809D01*
X97467235Y-98283157D01*
X97715000Y-98332440D01*
X99015000Y-98332440D01*
X99262765Y-98283157D01*
X99472809Y-98142809D01*
X99613157Y-97932765D01*
X99662440Y-97685000D01*
X99662440Y-97174401D01*
X99935841Y-96901000D01*
X102270743Y-96901000D01*
X102316843Y-97132765D01*
X102457191Y-97342809D01*
X102667235Y-97483157D01*
X102915000Y-97532440D01*
X104215000Y-97532440D01*
X104462765Y-97483157D01*
X104672809Y-97342809D01*
X104813157Y-97132765D01*
X104833996Y-97028000D01*
X105026554Y-97028000D01*
X105748173Y-97749619D01*
X105767873Y-97779102D01*
X105766673Y-97780302D01*
X105670000Y-98013691D01*
X105670000Y-98254250D01*
X105828750Y-98413000D01*
X106553000Y-98413000D01*
X106553000Y-98393000D01*
X106807000Y-98393000D01*
X106807000Y-98413000D01*
X107531250Y-98413000D01*
X107690000Y-98254250D01*
X107690000Y-98013691D01*
X107593327Y-97780302D01*
X107592127Y-97779102D01*
X107653157Y-97687765D01*
X107677623Y-97564766D01*
X107735994Y-97477407D01*
X107823000Y-97040000D01*
X107823000Y-96180347D01*
X107868157Y-96112765D01*
X107917440Y-95865000D01*
X107917440Y-93365000D01*
X107868157Y-93117235D01*
X107727809Y-92907191D01*
X107517765Y-92766843D01*
X107270000Y-92717560D01*
X106270000Y-92717560D01*
X106022235Y-92766843D01*
X105812191Y-92907191D01*
X105671843Y-93117235D01*
X105622560Y-93365000D01*
X105622560Y-94145994D01*
X105026554Y-94742000D01*
X104833996Y-94742000D01*
X104813157Y-94637235D01*
X104672809Y-94427191D01*
X104462765Y-94286843D01*
X104215000Y-94237560D01*
X102915000Y-94237560D01*
X102667235Y-94286843D01*
X102457191Y-94427191D01*
X102316843Y-94637235D01*
X102270743Y-94869000D01*
X99662440Y-94869000D01*
X99662440Y-94085000D01*
X99613157Y-93837235D01*
X99472809Y-93627191D01*
X99262765Y-93486843D01*
X99015000Y-93437560D01*
X97715000Y-93437560D01*
X97467235Y-93486843D01*
X97309858Y-93592000D01*
X96699000Y-93592000D01*
X96261593Y-93679006D01*
X95890777Y-93926777D01*
X92241777Y-97575777D01*
X91994006Y-97946593D01*
X91907000Y-98384000D01*
X91907000Y-103239000D01*
X91815000Y-103239000D01*
X91815000Y-103040750D01*
X91656250Y-102882000D01*
X90932000Y-102882000D01*
X90932000Y-102902000D01*
X90678000Y-102902000D01*
X90678000Y-102882000D01*
X89953750Y-102882000D01*
X89795000Y-103040750D01*
X89795000Y-103095777D01*
X89653895Y-103001494D01*
X89216488Y-102914488D01*
X81520600Y-102914488D01*
X81520600Y-102228691D01*
X89795000Y-102228691D01*
X89795000Y-102469250D01*
X89953750Y-102628000D01*
X90678000Y-102628000D01*
X90678000Y-101878750D01*
X90932000Y-101878750D01*
X90932000Y-102628000D01*
X91656250Y-102628000D01*
X91815000Y-102469250D01*
X91815000Y-102228691D01*
X91718327Y-101995302D01*
X91539699Y-101816673D01*
X91306310Y-101720000D01*
X91090750Y-101720000D01*
X90932000Y-101878750D01*
X90678000Y-101878750D01*
X90519250Y-101720000D01*
X90303690Y-101720000D01*
X90070301Y-101816673D01*
X89891673Y-101995302D01*
X89795000Y-102228691D01*
X81520600Y-102228691D01*
X81520600Y-97285621D01*
X84503984Y-97285621D01*
X84751871Y-97679465D01*
X85803998Y-98109937D01*
X86940772Y-98105009D01*
X87968129Y-97679465D01*
X88216016Y-97285621D01*
X86360000Y-95429605D01*
X84503984Y-97285621D01*
X81520600Y-97285621D01*
X81520600Y-95605600D01*
X81433594Y-95168193D01*
X81185823Y-94797377D01*
X81082444Y-94693998D01*
X83500063Y-94693998D01*
X83504991Y-95830772D01*
X83930535Y-96858129D01*
X84324379Y-97106016D01*
X86180395Y-95250000D01*
X86539605Y-95250000D01*
X88395621Y-97106016D01*
X88789465Y-96858129D01*
X89219937Y-95806002D01*
X89215009Y-94669228D01*
X88789465Y-93641871D01*
X88395621Y-93393984D01*
X86539605Y-95250000D01*
X86180395Y-95250000D01*
X84324379Y-93393984D01*
X83930535Y-93641871D01*
X83500063Y-94693998D01*
X81082444Y-94693998D01*
X79602825Y-93214379D01*
X84503984Y-93214379D01*
X86360000Y-95070395D01*
X88216016Y-93214379D01*
X87968129Y-92820535D01*
X86916002Y-92390063D01*
X85779228Y-92394991D01*
X84751871Y-92820535D01*
X84503984Y-93214379D01*
X79602825Y-93214379D01*
X78098196Y-91709750D01*
X79004000Y-91709750D01*
X79004000Y-92050309D01*
X79100673Y-92283698D01*
X79279301Y-92462327D01*
X79512690Y-92559000D01*
X79978250Y-92559000D01*
X80137000Y-92400250D01*
X80137000Y-91551000D01*
X80391000Y-91551000D01*
X80391000Y-92400250D01*
X80549750Y-92559000D01*
X81015310Y-92559000D01*
X81248699Y-92462327D01*
X81427327Y-92283698D01*
X81524000Y-92050309D01*
X81524000Y-91709750D01*
X81365250Y-91551000D01*
X80391000Y-91551000D01*
X80137000Y-91551000D01*
X79162750Y-91551000D01*
X79004000Y-91709750D01*
X78098196Y-91709750D01*
X76978446Y-90590000D01*
X79090029Y-90590000D01*
X79004000Y-90797691D01*
X79004000Y-91138250D01*
X79162750Y-91297000D01*
X80137000Y-91297000D01*
X80137000Y-91277000D01*
X80391000Y-91277000D01*
X80391000Y-91297000D01*
X81365250Y-91297000D01*
X81524000Y-91138250D01*
X81524000Y-90797691D01*
X81427327Y-90564302D01*
X81285680Y-90422654D01*
X81346809Y-90381809D01*
X81487157Y-90171765D01*
X81493451Y-90140119D01*
X99313604Y-90140119D01*
X99660894Y-90980623D01*
X100303395Y-91624246D01*
X101143292Y-91973002D01*
X102052719Y-91973796D01*
X102893223Y-91626506D01*
X103536846Y-90984005D01*
X103885602Y-90144108D01*
X103885605Y-90140119D01*
X121538604Y-90140119D01*
X121885894Y-90980623D01*
X122528395Y-91624246D01*
X123368292Y-91973002D01*
X124277719Y-91973796D01*
X125118223Y-91626506D01*
X125761846Y-90984005D01*
X126110602Y-90144108D01*
X126111396Y-89234681D01*
X125764106Y-88394177D01*
X125121605Y-87750554D01*
X124281708Y-87401798D01*
X123372281Y-87401004D01*
X122531777Y-87748294D01*
X121888154Y-88390795D01*
X121539398Y-89230692D01*
X121538604Y-90140119D01*
X103885605Y-90140119D01*
X103886396Y-89234681D01*
X103539106Y-88394177D01*
X102896605Y-87750554D01*
X102056708Y-87401798D01*
X101147281Y-87401004D01*
X100306777Y-87748294D01*
X99663154Y-88390795D01*
X99314398Y-89230692D01*
X99313604Y-90140119D01*
X81493451Y-90140119D01*
X81536440Y-89924000D01*
X81536440Y-88924000D01*
X81487157Y-88676235D01*
X81346809Y-88466191D01*
X81136765Y-88325843D01*
X80889000Y-88276560D01*
X79639000Y-88276560D01*
X79391235Y-88325843D01*
X79181191Y-88466191D01*
X79119846Y-88558000D01*
X75946000Y-88558000D01*
X75601324Y-88626560D01*
X75546000Y-88626560D01*
X75298235Y-88675843D01*
X75088191Y-88816191D01*
X74947843Y-89026235D01*
X74898560Y-89274000D01*
X74898560Y-89874000D01*
X74947843Y-90121765D01*
X75088191Y-90331809D01*
X75213232Y-90415360D01*
X75137777Y-90465777D01*
X75116916Y-90496997D01*
X75088191Y-90516191D01*
X74947843Y-90726235D01*
X74941103Y-90760121D01*
X74890006Y-90836593D01*
X74803000Y-91274000D01*
X74890006Y-91711407D01*
X74941103Y-91787879D01*
X74947843Y-91821765D01*
X75088191Y-92031809D01*
X75116916Y-92051003D01*
X75137777Y-92082223D01*
X75439143Y-92283589D01*
X76920554Y-93765000D01*
X76485750Y-93765000D01*
X76327000Y-93923750D01*
X76327000Y-95123000D01*
X77526250Y-95123000D01*
X77685000Y-94964250D01*
X77685000Y-94529446D01*
X79234600Y-96079046D01*
X79234600Y-103781554D01*
X78316142Y-104700012D01*
X78485602Y-104291908D01*
X78486396Y-103382481D01*
X78139106Y-102541977D01*
X77496605Y-101898354D01*
X76656708Y-101549598D01*
X75747281Y-101548804D01*
X75593565Y-101612319D01*
X74803000Y-100821754D01*
X74803000Y-96438760D01*
X74811673Y-96459698D01*
X74990301Y-96638327D01*
X75223690Y-96735000D01*
X75914250Y-96735000D01*
X76073000Y-96576250D01*
X76073000Y-95377000D01*
X76327000Y-95377000D01*
X76327000Y-96576250D01*
X76485750Y-96735000D01*
X77176310Y-96735000D01*
X77409699Y-96638327D01*
X77588327Y-96459698D01*
X77685000Y-96226309D01*
X77685000Y-95535750D01*
X77526250Y-95377000D01*
X76327000Y-95377000D01*
X76073000Y-95377000D01*
X76053000Y-95377000D01*
X76053000Y-95123000D01*
X76073000Y-95123000D01*
X76073000Y-93923750D01*
X75914250Y-93765000D01*
X75223690Y-93765000D01*
X74990301Y-93861673D01*
X74811673Y-94040302D01*
X74739403Y-94214777D01*
X74710054Y-94170853D01*
X74228285Y-93848946D01*
X73660000Y-93735907D01*
X73091715Y-93848946D01*
X72609946Y-94170853D01*
X72288039Y-94652622D01*
X72175000Y-95220907D01*
X72175000Y-95279093D01*
X72288039Y-95847378D01*
X72517000Y-96190043D01*
X72517000Y-101295200D01*
X72604006Y-101732607D01*
X72851777Y-102103423D01*
X73976731Y-103228377D01*
X73914398Y-103378492D01*
X73913604Y-104287919D01*
X73936445Y-104343199D01*
X73583801Y-104343199D01*
X73146394Y-104430205D01*
X72775578Y-104677976D01*
X72216777Y-105236777D01*
X71969006Y-105607593D01*
X71882000Y-106045000D01*
X71882000Y-89104971D01*
X72624821Y-89104971D01*
X72782058Y-89485515D01*
X73072954Y-89776919D01*
X73453223Y-89934820D01*
X73864971Y-89935179D01*
X74245515Y-89777942D01*
X74536919Y-89487046D01*
X74694820Y-89106777D01*
X74695179Y-88695029D01*
X74537942Y-88314485D01*
X74247046Y-88023081D01*
X73866777Y-87865180D01*
X73455029Y-87864821D01*
X73074485Y-88022058D01*
X72783081Y-88312954D01*
X72625180Y-88693223D01*
X72624821Y-89104971D01*
X71882000Y-89104971D01*
X71882000Y-85852000D01*
X149098000Y-85852000D01*
X149098000Y-95211900D01*
G36*
X94262191Y-105562809D02*
X94472235Y-105703157D01*
X94607185Y-105730000D01*
X94472235Y-105756843D01*
X94262191Y-105897191D01*
X94195801Y-105996551D01*
X94056250Y-105857000D01*
X93977659Y-105857000D01*
X93827765Y-105756843D01*
X93692815Y-105730000D01*
X93827765Y-105703157D01*
X93977659Y-105603000D01*
X94056250Y-105603000D01*
X94195801Y-105463449D01*
X94262191Y-105562809D01*
X94262191Y-105562809D01*
G37*
X94262191Y-105562809D02*
X94472235Y-105703157D01*
X94607185Y-105730000D01*
X94472235Y-105756843D01*
X94262191Y-105897191D01*
X94195801Y-105996551D01*
X94056250Y-105857000D01*
X93977659Y-105857000D01*
X93827765Y-105756843D01*
X93692815Y-105730000D01*
X93827765Y-105703157D01*
X93977659Y-105603000D01*
X94056250Y-105603000D01*
X94195801Y-105463449D01*
X94262191Y-105562809D01*
G36*
X125727918Y-101853983D02*
X127755000Y-101887214D01*
X127755000Y-102101310D01*
X127851673Y-102334699D01*
X128030302Y-102513327D01*
X128263691Y-102610000D01*
X128504250Y-102610000D01*
X128663000Y-102451250D01*
X128663000Y-101902099D01*
X128917000Y-101906263D01*
X128917000Y-102451250D01*
X129027955Y-102562205D01*
X127196160Y-104394000D01*
X126111000Y-104394000D01*
X126111000Y-103257000D01*
X126033662Y-102868194D01*
X126033662Y-102868193D01*
X125813420Y-102538579D01*
X125591000Y-102316159D01*
X125591000Y-102133061D01*
X125593403Y-102120979D01*
X125685994Y-101982407D01*
X125712214Y-101850591D01*
X125727918Y-101853983D01*
X125727918Y-101853983D01*
G37*
X125727918Y-101853983D02*
X127755000Y-101887214D01*
X127755000Y-102101310D01*
X127851673Y-102334699D01*
X128030302Y-102513327D01*
X128263691Y-102610000D01*
X128504250Y-102610000D01*
X128663000Y-102451250D01*
X128663000Y-101902099D01*
X128917000Y-101906263D01*
X128917000Y-102451250D01*
X129027955Y-102562205D01*
X127196160Y-104394000D01*
X126111000Y-104394000D01*
X126111000Y-103257000D01*
X126033662Y-102868194D01*
X126033662Y-102868193D01*
X125813420Y-102538579D01*
X125591000Y-102316159D01*
X125591000Y-102133061D01*
X125593403Y-102120979D01*
X125685994Y-101982407D01*
X125712214Y-101850591D01*
X125727918Y-101853983D01*
D32*
G36*
X112928400Y-96266000D02*
X112936134Y-96304881D01*
X112958158Y-96337842D01*
X112991119Y-96359866D01*
X113030000Y-96367600D01*
X128676400Y-96367600D01*
X128676400Y-98171000D01*
X128684134Y-98209881D01*
X128706158Y-98242842D01*
X128739119Y-98264866D01*
X128778000Y-98272600D01*
X136042400Y-98272600D01*
X136042400Y-99441000D01*
X136050134Y-99479881D01*
X136072158Y-99512842D01*
X136105119Y-99534866D01*
X136144000Y-99542600D01*
X140417600Y-99542600D01*
X140275400Y-99684800D01*
X140275400Y-99901257D01*
X140368206Y-100125311D01*
X140539689Y-100296794D01*
X140763743Y-100389600D01*
X141030200Y-100389600D01*
X141182600Y-100237200D01*
X141182600Y-99542600D01*
X141487400Y-99542600D01*
X141487400Y-100237200D01*
X141639800Y-100389600D01*
X141906257Y-100389600D01*
X142130311Y-100296794D01*
X142301794Y-100125311D01*
X142394600Y-99901257D01*
X142394600Y-99684800D01*
X142252400Y-99542600D01*
X149123400Y-99542600D01*
X149123400Y-100146229D01*
X144145000Y-100146229D01*
X144026073Y-100169885D01*
X143925252Y-100237252D01*
X143857885Y-100338073D01*
X143834229Y-100457000D01*
X143834229Y-100787200D01*
X142077312Y-100787200D01*
X142072115Y-100761073D01*
X142004748Y-100660252D01*
X141903927Y-100592885D01*
X141785000Y-100569229D01*
X140885000Y-100569229D01*
X140766073Y-100592885D01*
X140665252Y-100660252D01*
X140597885Y-100761073D01*
X140592688Y-100787200D01*
X140084393Y-100787200D01*
X140095771Y-100730000D01*
X140095771Y-99930000D01*
X140072115Y-99811073D01*
X140004748Y-99710252D01*
X139903927Y-99642885D01*
X139785000Y-99619229D01*
X138885000Y-99619229D01*
X138766073Y-99642885D01*
X138665252Y-99710252D01*
X138597885Y-99811073D01*
X138574229Y-99930000D01*
X138574229Y-100730000D01*
X138585607Y-100787200D01*
X138545000Y-100787200D01*
X138233955Y-100849071D01*
X138132811Y-100916654D01*
X138026073Y-100937885D01*
X137947479Y-100990400D01*
X137642521Y-100990400D01*
X137563927Y-100937885D01*
X137457189Y-100916654D01*
X137356045Y-100849071D01*
X137045000Y-100787200D01*
X135624247Y-100787200D01*
X135614434Y-100737868D01*
X135665311Y-100716794D01*
X135836794Y-100545311D01*
X135929600Y-100321257D01*
X135929600Y-100004800D01*
X135777200Y-99852400D01*
X135356600Y-99852400D01*
X135356600Y-99695000D01*
X135348866Y-99656119D01*
X135326842Y-99623158D01*
X135293881Y-99601134D01*
X135255000Y-99593400D01*
X134447600Y-99593400D01*
X134447600Y-99547600D01*
X134467600Y-99547600D01*
X134467600Y-98742800D01*
X134772400Y-98742800D01*
X134772400Y-99547600D01*
X135777200Y-99547600D01*
X135929600Y-99395200D01*
X135929600Y-99078743D01*
X135836794Y-98854689D01*
X135665311Y-98683206D01*
X135441257Y-98590400D01*
X134924800Y-98590400D01*
X134772400Y-98742800D01*
X134467600Y-98742800D01*
X134315200Y-98590400D01*
X133798743Y-98590400D01*
X133574689Y-98683206D01*
X133403206Y-98854689D01*
X133346815Y-98990829D01*
X133339748Y-98980252D01*
X133238927Y-98912885D01*
X133120000Y-98889229D01*
X132430200Y-98889229D01*
X132420000Y-98887200D01*
X130315132Y-98887200D01*
X130290000Y-98882201D01*
X129978955Y-98944071D01*
X129877811Y-99011654D01*
X129771073Y-99032885D01*
X129692479Y-99085400D01*
X129387521Y-99085400D01*
X129308927Y-99032885D01*
X129202189Y-99011654D01*
X129101045Y-98944071D01*
X128790000Y-98882200D01*
X127852603Y-98882200D01*
X127875311Y-98872794D01*
X128046794Y-98701311D01*
X128139600Y-98477257D01*
X128139600Y-98160800D01*
X127987200Y-98008400D01*
X127700797Y-98008400D01*
X127700797Y-97703600D01*
X127987200Y-97703600D01*
X128139600Y-97551200D01*
X128139600Y-97234743D01*
X128046794Y-97010689D01*
X127875311Y-96839206D01*
X127651257Y-96746400D01*
X127134800Y-96746400D01*
X126982400Y-96898800D01*
X126982400Y-97434400D01*
X126677600Y-97434400D01*
X126677600Y-96898800D01*
X126525200Y-96746400D01*
X126008743Y-96746400D01*
X125784689Y-96839206D01*
X125613206Y-97010689D01*
X125556815Y-97146829D01*
X125549748Y-97136252D01*
X125448927Y-97068885D01*
X125330000Y-97045229D01*
X124857675Y-97045229D01*
X124576000Y-96989200D01*
X122603328Y-96989200D01*
X122543000Y-96977200D01*
X120765000Y-96977200D01*
X120453955Y-97039071D01*
X120352811Y-97106654D01*
X120246073Y-97127885D01*
X120167479Y-97180400D01*
X119862521Y-97180400D01*
X119783927Y-97127885D01*
X119677189Y-97106654D01*
X119576045Y-97039071D01*
X119265000Y-96977200D01*
X117487000Y-96977200D01*
X117475000Y-96979587D01*
X117463000Y-96977200D01*
X115685000Y-96977200D01*
X115373955Y-97039071D01*
X115272811Y-97106654D01*
X115166073Y-97127885D01*
X115087479Y-97180400D01*
X114782521Y-97180400D01*
X114703927Y-97127885D01*
X114597189Y-97106654D01*
X114496045Y-97039071D01*
X114185000Y-96977200D01*
X112482800Y-96977200D01*
X112482800Y-94615000D01*
X112480771Y-94604800D01*
X112480771Y-93365000D01*
X112457115Y-93246073D01*
X112389748Y-93145252D01*
X112288927Y-93077885D01*
X112170000Y-93054229D01*
X111734600Y-93054229D01*
X111734600Y-92303600D01*
X112928400Y-92303600D01*
X112928400Y-96266000D01*
X112928400Y-96266000D01*
G37*
X112928400Y-96266000D02*
X112936134Y-96304881D01*
X112958158Y-96337842D01*
X112991119Y-96359866D01*
X113030000Y-96367600D01*
X128676400Y-96367600D01*
X128676400Y-98171000D01*
X128684134Y-98209881D01*
X128706158Y-98242842D01*
X128739119Y-98264866D01*
X128778000Y-98272600D01*
X136042400Y-98272600D01*
X136042400Y-99441000D01*
X136050134Y-99479881D01*
X136072158Y-99512842D01*
X136105119Y-99534866D01*
X136144000Y-99542600D01*
X140417600Y-99542600D01*
X140275400Y-99684800D01*
X140275400Y-99901257D01*
X140368206Y-100125311D01*
X140539689Y-100296794D01*
X140763743Y-100389600D01*
X141030200Y-100389600D01*
X141182600Y-100237200D01*
X141182600Y-99542600D01*
X141487400Y-99542600D01*
X141487400Y-100237200D01*
X141639800Y-100389600D01*
X141906257Y-100389600D01*
X142130311Y-100296794D01*
X142301794Y-100125311D01*
X142394600Y-99901257D01*
X142394600Y-99684800D01*
X142252400Y-99542600D01*
X149123400Y-99542600D01*
X149123400Y-100146229D01*
X144145000Y-100146229D01*
X144026073Y-100169885D01*
X143925252Y-100237252D01*
X143857885Y-100338073D01*
X143834229Y-100457000D01*
X143834229Y-100787200D01*
X142077312Y-100787200D01*
X142072115Y-100761073D01*
X142004748Y-100660252D01*
X141903927Y-100592885D01*
X141785000Y-100569229D01*
X140885000Y-100569229D01*
X140766073Y-100592885D01*
X140665252Y-100660252D01*
X140597885Y-100761073D01*
X140592688Y-100787200D01*
X140084393Y-100787200D01*
X140095771Y-100730000D01*
X140095771Y-99930000D01*
X140072115Y-99811073D01*
X140004748Y-99710252D01*
X139903927Y-99642885D01*
X139785000Y-99619229D01*
X138885000Y-99619229D01*
X138766073Y-99642885D01*
X138665252Y-99710252D01*
X138597885Y-99811073D01*
X138574229Y-99930000D01*
X138574229Y-100730000D01*
X138585607Y-100787200D01*
X138545000Y-100787200D01*
X138233955Y-100849071D01*
X138132811Y-100916654D01*
X138026073Y-100937885D01*
X137947479Y-100990400D01*
X137642521Y-100990400D01*
X137563927Y-100937885D01*
X137457189Y-100916654D01*
X137356045Y-100849071D01*
X137045000Y-100787200D01*
X135624247Y-100787200D01*
X135614434Y-100737868D01*
X135665311Y-100716794D01*
X135836794Y-100545311D01*
X135929600Y-100321257D01*
X135929600Y-100004800D01*
X135777200Y-99852400D01*
X135356600Y-99852400D01*
X135356600Y-99695000D01*
X135348866Y-99656119D01*
X135326842Y-99623158D01*
X135293881Y-99601134D01*
X135255000Y-99593400D01*
X134447600Y-99593400D01*
X134447600Y-99547600D01*
X134467600Y-99547600D01*
X134467600Y-98742800D01*
X134772400Y-98742800D01*
X134772400Y-99547600D01*
X135777200Y-99547600D01*
X135929600Y-99395200D01*
X135929600Y-99078743D01*
X135836794Y-98854689D01*
X135665311Y-98683206D01*
X135441257Y-98590400D01*
X134924800Y-98590400D01*
X134772400Y-98742800D01*
X134467600Y-98742800D01*
X134315200Y-98590400D01*
X133798743Y-98590400D01*
X133574689Y-98683206D01*
X133403206Y-98854689D01*
X133346815Y-98990829D01*
X133339748Y-98980252D01*
X133238927Y-98912885D01*
X133120000Y-98889229D01*
X132430200Y-98889229D01*
X132420000Y-98887200D01*
X130315132Y-98887200D01*
X130290000Y-98882201D01*
X129978955Y-98944071D01*
X129877811Y-99011654D01*
X129771073Y-99032885D01*
X129692479Y-99085400D01*
X129387521Y-99085400D01*
X129308927Y-99032885D01*
X129202189Y-99011654D01*
X129101045Y-98944071D01*
X128790000Y-98882200D01*
X127852603Y-98882200D01*
X127875311Y-98872794D01*
X128046794Y-98701311D01*
X128139600Y-98477257D01*
X128139600Y-98160800D01*
X127987200Y-98008400D01*
X127700797Y-98008400D01*
X127700797Y-97703600D01*
X127987200Y-97703600D01*
X128139600Y-97551200D01*
X128139600Y-97234743D01*
X128046794Y-97010689D01*
X127875311Y-96839206D01*
X127651257Y-96746400D01*
X127134800Y-96746400D01*
X126982400Y-96898800D01*
X126982400Y-97434400D01*
X126677600Y-97434400D01*
X126677600Y-96898800D01*
X126525200Y-96746400D01*
X126008743Y-96746400D01*
X125784689Y-96839206D01*
X125613206Y-97010689D01*
X125556815Y-97146829D01*
X125549748Y-97136252D01*
X125448927Y-97068885D01*
X125330000Y-97045229D01*
X124857675Y-97045229D01*
X124576000Y-96989200D01*
X122603328Y-96989200D01*
X122543000Y-96977200D01*
X120765000Y-96977200D01*
X120453955Y-97039071D01*
X120352811Y-97106654D01*
X120246073Y-97127885D01*
X120167479Y-97180400D01*
X119862521Y-97180400D01*
X119783927Y-97127885D01*
X119677189Y-97106654D01*
X119576045Y-97039071D01*
X119265000Y-96977200D01*
X117487000Y-96977200D01*
X117475000Y-96979587D01*
X117463000Y-96977200D01*
X115685000Y-96977200D01*
X115373955Y-97039071D01*
X115272811Y-97106654D01*
X115166073Y-97127885D01*
X115087479Y-97180400D01*
X114782521Y-97180400D01*
X114703927Y-97127885D01*
X114597189Y-97106654D01*
X114496045Y-97039071D01*
X114185000Y-96977200D01*
X112482800Y-96977200D01*
X112482800Y-94615000D01*
X112480771Y-94604800D01*
X112480771Y-93365000D01*
X112457115Y-93246073D01*
X112389748Y-93145252D01*
X112288927Y-93077885D01*
X112170000Y-93054229D01*
X111734600Y-93054229D01*
X111734600Y-92303600D01*
X112928400Y-92303600D01*
X112928400Y-96266000D01*
G36*
X138026073Y-102262115D02*
X138132811Y-102283346D01*
X138233955Y-102350929D01*
X138545000Y-102412800D01*
X143834229Y-102412800D01*
X143834229Y-102743000D01*
X143857885Y-102861927D01*
X143925252Y-102962748D01*
X144026073Y-103030115D01*
X144145000Y-103053771D01*
X149123400Y-103053771D01*
X149123400Y-104254300D01*
X146799300Y-104254300D01*
X146710400Y-104343200D01*
X146710400Y-105435400D01*
X146659600Y-105435400D01*
X146659600Y-104343200D01*
X146570700Y-104254300D01*
X144074267Y-104254300D01*
X143943569Y-104308437D01*
X143843537Y-104408469D01*
X143789400Y-104539167D01*
X143789400Y-105435400D01*
X133578600Y-105435400D01*
X133578600Y-102463600D01*
X135255000Y-102463600D01*
X135293881Y-102455866D01*
X135326842Y-102433842D01*
X135340902Y-102412800D01*
X137045000Y-102412800D01*
X137356045Y-102350929D01*
X137457189Y-102283346D01*
X137563927Y-102262115D01*
X137642521Y-102209600D01*
X137947479Y-102209600D01*
X138026073Y-102262115D01*
X138026073Y-102262115D01*
G37*
X138026073Y-102262115D02*
X138132811Y-102283346D01*
X138233955Y-102350929D01*
X138545000Y-102412800D01*
X143834229Y-102412800D01*
X143834229Y-102743000D01*
X143857885Y-102861927D01*
X143925252Y-102962748D01*
X144026073Y-103030115D01*
X144145000Y-103053771D01*
X149123400Y-103053771D01*
X149123400Y-104254300D01*
X146799300Y-104254300D01*
X146710400Y-104343200D01*
X146710400Y-105435400D01*
X146659600Y-105435400D01*
X146659600Y-104343200D01*
X146570700Y-104254300D01*
X144074267Y-104254300D01*
X143943569Y-104308437D01*
X143843537Y-104408469D01*
X143789400Y-104539167D01*
X143789400Y-105435400D01*
X133578600Y-105435400D01*
X133578600Y-102463600D01*
X135255000Y-102463600D01*
X135293881Y-102455866D01*
X135326842Y-102433842D01*
X135340902Y-102412800D01*
X137045000Y-102412800D01*
X137356045Y-102350929D01*
X137457189Y-102283346D01*
X137563927Y-102262115D01*
X137642521Y-102209600D01*
X137947479Y-102209600D01*
X138026073Y-102262115D01*
G36*
X125910252Y-100395748D02*
X126011073Y-100463115D01*
X126130000Y-100486771D01*
X126843281Y-100486771D01*
X126949000Y-100507800D01*
X128790000Y-100507800D01*
X129101045Y-100445929D01*
X129202189Y-100378346D01*
X129308927Y-100357115D01*
X129387521Y-100304600D01*
X129692479Y-100304600D01*
X129771073Y-100357115D01*
X129874275Y-100377643D01*
X129983955Y-100450929D01*
X130295000Y-100512800D01*
X131343400Y-100512800D01*
X131343400Y-100787200D01*
X130290000Y-100787200D01*
X129978955Y-100849071D01*
X129877811Y-100916654D01*
X129771073Y-100937885D01*
X129670252Y-101005252D01*
X129602885Y-101106073D01*
X129579229Y-101225000D01*
X129579229Y-101228854D01*
X129545600Y-101279184D01*
X129545600Y-101154267D01*
X129491463Y-101023569D01*
X129391431Y-100923537D01*
X129260733Y-100869400D01*
X128904300Y-100869400D01*
X128815400Y-100958300D01*
X128815400Y-101574600D01*
X128835400Y-101574600D01*
X128835400Y-101625400D01*
X128815400Y-101625400D01*
X128815400Y-101645400D01*
X128764600Y-101645400D01*
X128764600Y-101625400D01*
X128123300Y-101625400D01*
X128084712Y-101663988D01*
X125831600Y-101627052D01*
X125831600Y-101154267D01*
X128034400Y-101154267D01*
X128034400Y-101485700D01*
X128123300Y-101574600D01*
X128764600Y-101574600D01*
X128764600Y-100958300D01*
X128675700Y-100869400D01*
X128319267Y-100869400D01*
X128188569Y-100923537D01*
X128088537Y-101023569D01*
X128034400Y-101154267D01*
X125831600Y-101154267D01*
X125831600Y-100304600D01*
X125849348Y-100304600D01*
X125910252Y-100395748D01*
X125910252Y-100395748D01*
G37*
X125910252Y-100395748D02*
X126011073Y-100463115D01*
X126130000Y-100486771D01*
X126843281Y-100486771D01*
X126949000Y-100507800D01*
X128790000Y-100507800D01*
X129101045Y-100445929D01*
X129202189Y-100378346D01*
X129308927Y-100357115D01*
X129387521Y-100304600D01*
X129692479Y-100304600D01*
X129771073Y-100357115D01*
X129874275Y-100377643D01*
X129983955Y-100450929D01*
X130295000Y-100512800D01*
X131343400Y-100512800D01*
X131343400Y-100787200D01*
X130290000Y-100787200D01*
X129978955Y-100849071D01*
X129877811Y-100916654D01*
X129771073Y-100937885D01*
X129670252Y-101005252D01*
X129602885Y-101106073D01*
X129579229Y-101225000D01*
X129579229Y-101228854D01*
X129545600Y-101279184D01*
X129545600Y-101154267D01*
X129491463Y-101023569D01*
X129391431Y-100923537D01*
X129260733Y-100869400D01*
X128904300Y-100869400D01*
X128815400Y-100958300D01*
X128815400Y-101574600D01*
X128835400Y-101574600D01*
X128835400Y-101625400D01*
X128815400Y-101625400D01*
X128815400Y-101645400D01*
X128764600Y-101645400D01*
X128764600Y-101625400D01*
X128123300Y-101625400D01*
X128084712Y-101663988D01*
X125831600Y-101627052D01*
X125831600Y-101154267D01*
X128034400Y-101154267D01*
X128034400Y-101485700D01*
X128123300Y-101574600D01*
X128764600Y-101574600D01*
X128764600Y-100958300D01*
X128675700Y-100869400D01*
X128319267Y-100869400D01*
X128188569Y-100923537D01*
X128088537Y-101023569D01*
X128034400Y-101154267D01*
X125831600Y-101154267D01*
X125831600Y-100304600D01*
X125849348Y-100304600D01*
X125910252Y-100395748D01*
G36*
X111531400Y-93054229D02*
X111170000Y-93054229D01*
X111051073Y-93077885D01*
X110991495Y-93117694D01*
X110959119Y-93124134D01*
X110926158Y-93146158D01*
X110904134Y-93179119D01*
X110896400Y-93218000D01*
X110896400Y-93225847D01*
X110882885Y-93246073D01*
X110859229Y-93365000D01*
X110859229Y-94604800D01*
X110857200Y-94615000D01*
X110857200Y-97401000D01*
X110885835Y-97544955D01*
X110896400Y-97598069D01*
X110896400Y-97790000D01*
X110904134Y-97828881D01*
X110926158Y-97861842D01*
X111375133Y-98310817D01*
X111387885Y-98374927D01*
X111455252Y-98475748D01*
X111556073Y-98543115D01*
X111675000Y-98566771D01*
X111753854Y-98566771D01*
X111813955Y-98606929D01*
X112125000Y-98668799D01*
X112436045Y-98606929D01*
X112442224Y-98602800D01*
X114185000Y-98602800D01*
X114496045Y-98540929D01*
X114517490Y-98526600D01*
X115352510Y-98526600D01*
X115373955Y-98540929D01*
X115685000Y-98602800D01*
X116896306Y-98602800D01*
X116798537Y-98700569D01*
X116744400Y-98831267D01*
X116744400Y-99085400D01*
X112807294Y-99085400D01*
X112776431Y-99054537D01*
X112645733Y-99000400D01*
X112239300Y-99000400D01*
X112154300Y-99085400D01*
X112095700Y-99085400D01*
X112010700Y-99000400D01*
X111604267Y-99000400D01*
X111473569Y-99054537D01*
X111442706Y-99085400D01*
X110885771Y-99085400D01*
X110885771Y-98406000D01*
X110862115Y-98287073D01*
X110794748Y-98186252D01*
X110693927Y-98118885D01*
X110575000Y-98095229D01*
X110337600Y-98095229D01*
X110337600Y-92303600D01*
X111531400Y-92303600D01*
X111531400Y-93054229D01*
X111531400Y-93054229D01*
G37*
X111531400Y-93054229D02*
X111170000Y-93054229D01*
X111051073Y-93077885D01*
X110991495Y-93117694D01*
X110959119Y-93124134D01*
X110926158Y-93146158D01*
X110904134Y-93179119D01*
X110896400Y-93218000D01*
X110896400Y-93225847D01*
X110882885Y-93246073D01*
X110859229Y-93365000D01*
X110859229Y-94604800D01*
X110857200Y-94615000D01*
X110857200Y-97401000D01*
X110885835Y-97544955D01*
X110896400Y-97598069D01*
X110896400Y-97790000D01*
X110904134Y-97828881D01*
X110926158Y-97861842D01*
X111375133Y-98310817D01*
X111387885Y-98374927D01*
X111455252Y-98475748D01*
X111556073Y-98543115D01*
X111675000Y-98566771D01*
X111753854Y-98566771D01*
X111813955Y-98606929D01*
X112125000Y-98668799D01*
X112436045Y-98606929D01*
X112442224Y-98602800D01*
X114185000Y-98602800D01*
X114496045Y-98540929D01*
X114517490Y-98526600D01*
X115352510Y-98526600D01*
X115373955Y-98540929D01*
X115685000Y-98602800D01*
X116896306Y-98602800D01*
X116798537Y-98700569D01*
X116744400Y-98831267D01*
X116744400Y-99085400D01*
X112807294Y-99085400D01*
X112776431Y-99054537D01*
X112645733Y-99000400D01*
X112239300Y-99000400D01*
X112154300Y-99085400D01*
X112095700Y-99085400D01*
X112010700Y-99000400D01*
X111604267Y-99000400D01*
X111473569Y-99054537D01*
X111442706Y-99085400D01*
X110885771Y-99085400D01*
X110885771Y-98406000D01*
X110862115Y-98287073D01*
X110794748Y-98186252D01*
X110693927Y-98118885D01*
X110575000Y-98095229D01*
X110337600Y-98095229D01*
X110337600Y-92303600D01*
X111531400Y-92303600D01*
X111531400Y-93054229D01*
G36*
X123811073Y-98643115D02*
X123930000Y-98666771D01*
X124104400Y-98666771D01*
X124104400Y-98945229D01*
X123930000Y-98945229D01*
X123811073Y-98968885D01*
X123710252Y-99036252D01*
X123677412Y-99085400D01*
X123285600Y-99085400D01*
X123285600Y-98831267D01*
X123231463Y-98700569D01*
X123145694Y-98614800D01*
X123768697Y-98614800D01*
X123811073Y-98643115D01*
X123811073Y-98643115D01*
G37*
X123811073Y-98643115D02*
X123930000Y-98666771D01*
X124104400Y-98666771D01*
X124104400Y-98945229D01*
X123930000Y-98945229D01*
X123811073Y-98968885D01*
X123710252Y-99036252D01*
X123677412Y-99085400D01*
X123285600Y-99085400D01*
X123285600Y-98831267D01*
X123231463Y-98700569D01*
X123145694Y-98614800D01*
X123768697Y-98614800D01*
X123811073Y-98643115D01*
G36*
X120453955Y-98540929D02*
X120765000Y-98602800D01*
X121976306Y-98602800D01*
X121878537Y-98700569D01*
X121824400Y-98831267D01*
X121824400Y-99085400D01*
X118205600Y-99085400D01*
X118205600Y-98831267D01*
X118151463Y-98700569D01*
X118053694Y-98602800D01*
X119265000Y-98602800D01*
X119576045Y-98540929D01*
X119597490Y-98526600D01*
X120432510Y-98526600D01*
X120453955Y-98540929D01*
X120453955Y-98540929D01*
G37*
X120453955Y-98540929D02*
X120765000Y-98602800D01*
X121976306Y-98602800D01*
X121878537Y-98700569D01*
X121824400Y-98831267D01*
X121824400Y-99085400D01*
X118205600Y-99085400D01*
X118205600Y-98831267D01*
X118151463Y-98700569D01*
X118053694Y-98602800D01*
X119265000Y-98602800D01*
X119576045Y-98540929D01*
X119597490Y-98526600D01*
X120432510Y-98526600D01*
X120453955Y-98540929D01*
M02*
