G04 #@! TF.GenerationSoftware,KiCad,Pcbnew,(2017-05-02 revision e4d2924ee)-makepkg*
G04 #@! TF.CreationDate,2017-08-14T20:38:34-05:00*
G04 #@! TF.ProjectId,NoiseGen,4E6F69736547656E2E6B696361645F70,rev?*
G04 #@! TF.FileFunction,Soldermask,Top*
G04 #@! TF.FilePolarity,Negative*
%FSLAX46Y46*%
G04 Gerber Fmt 4.6, Leading zero omitted, Abs format (unit mm)*
G04 Created by KiCad (PCBNEW (2017-05-02 revision e4d2924ee)-makepkg) date 08/14/17 20:38:34*
%MOMM*%
%LPD*%
G01*
G04 APERTURE LIST*
%ADD10C,0.100000*%
%ADD11C,4.648200*%
%ADD12C,3.505200*%
%ADD13R,0.953200X1.003200*%
%ADD14R,1.003200X0.953200*%
%ADD15R,1.003200X0.803200*%
%ADD16O,1.903200X1.903200*%
%ADD17R,1.903200X1.903200*%
%ADD18R,5.283200X2.819400*%
%ADD19R,5.283200X2.489200*%
%ADD20R,1.203200X2.703200*%
%ADD21R,1.453200X1.203200*%
%ADD22R,1.603200X1.403200*%
%ADD23R,1.603200X1.203200*%
%ADD24R,1.263200X0.853200*%
%ADD25R,1.503200X1.503200*%
%ADD26R,1.503200X2.203200*%
%ADD27R,1.103200X1.003200*%
G04 APERTURE END LIST*
D10*
D11*
X86360000Y-107950000D03*
X86360000Y-95250000D03*
D12*
X101600000Y-89687400D03*
X101600000Y-113512600D03*
X123825000Y-89687400D03*
X123825000Y-113512600D03*
D13*
X106680000Y-97040000D03*
X106680000Y-98540000D03*
D14*
X115685000Y-97790000D03*
X114185000Y-97790000D03*
X123075000Y-101600000D03*
X124575000Y-101600000D03*
D13*
X90805000Y-104255000D03*
X90805000Y-102755000D03*
D14*
X128790000Y-99695000D03*
X130290000Y-99695000D03*
D13*
X97155000Y-107200000D03*
X97155000Y-108700000D03*
D14*
X128790000Y-101600000D03*
X130290000Y-101600000D03*
D13*
X97155000Y-104255000D03*
X97155000Y-102755000D03*
D14*
X137045000Y-101600000D03*
X138545000Y-101600000D03*
D13*
X99060000Y-102755000D03*
X99060000Y-104255000D03*
D15*
X75946000Y-91274000D03*
X75946000Y-89574000D03*
D16*
X73660000Y-95250000D03*
D17*
X76200000Y-95250000D03*
D18*
X146685000Y-105918000D03*
X146685000Y-97155000D03*
D19*
X146685000Y-101600000D03*
D20*
X111670000Y-94615000D03*
X106770000Y-94615000D03*
D13*
X117475000Y-97802000D03*
X117475000Y-99302000D03*
D14*
X119265000Y-97790000D03*
X120765000Y-97790000D03*
D13*
X122555000Y-99302000D03*
X122555000Y-97802000D03*
D21*
X80264000Y-91424000D03*
X80264000Y-89424000D03*
D12*
X76200000Y-113030000D03*
X76200000Y-108432600D03*
X76200000Y-103835200D03*
D22*
X126830000Y-99576000D03*
D23*
X126830000Y-97856000D03*
X124630000Y-97856000D03*
X124630000Y-99756000D03*
D24*
X95250000Y-104780000D03*
X95250000Y-106680000D03*
X93050000Y-106680000D03*
X93050000Y-105730000D03*
X93050000Y-104780000D03*
D23*
X132420000Y-101600000D03*
X132420000Y-99700000D03*
X134620000Y-99700000D03*
D22*
X134620000Y-101420000D03*
D25*
X98365000Y-94735000D03*
D26*
X103565000Y-95885000D03*
D25*
X98365000Y-97035000D03*
D27*
X110125000Y-98806000D03*
X112125000Y-97856000D03*
X112125000Y-99756000D03*
X139335000Y-100330000D03*
X141335000Y-99380000D03*
X141335000Y-101280000D03*
M02*
