M48
;DRILL file {KiCad (2017-05-02 revision e4d2924ee)-makepkg} date 08/14/17 20:38:41
;FORMAT={-:-/ absolute / inch / decimal}
FMAT,2
INCH,TZ
T1C0.016
T2C0.039
T3C0.065
T4C0.081
%
G90
G05
M72
T1
X2.9Y-3.5
X3.Y-3.85
X3.18Y-4.305
X3.2Y-3.65
X3.2Y-4.5
X3.3Y-3.5
X3.4Y-3.9
X3.4Y-4.
X3.4Y-4.5
X3.5Y-3.5
X3.55Y-3.95
X3.6Y-3.7
X3.6Y-4.3
X3.6Y-4.5
X3.705Y-4.16
X3.75Y-3.95
X3.75Y-4.3
X3.8Y-3.5
X3.8Y-3.84
X3.8Y-4.
X3.8Y-4.4
X3.8Y-4.5
X3.875Y-3.65
X3.9Y-4.
X3.905Y-3.89
X4.Y-3.7
X4.01Y-3.835
X4.05Y-3.95
X4.1Y-4.3
X4.1Y-4.5
X4.13Y-3.86
X4.15Y-3.675
X4.2Y-3.5
X4.2Y-4.05
X4.225Y-3.625
X4.27Y-3.84
X4.3Y-4.3
X4.3Y-4.5
X4.325Y-3.675
X4.325Y-3.75
X4.35Y-3.825
X4.39Y-3.895
X4.4Y-3.5
X4.4Y-3.625
X4.4Y-4.05
X4.45Y-3.675
X4.45Y-3.75
X4.475Y-3.9
X4.5Y-3.6
X4.5Y-3.8
X4.5Y-4.3
X4.5Y-4.5
X4.575Y-3.9
X4.6Y-3.8
X4.6Y-4.05
X4.625Y-3.975
X4.675Y-3.8
X4.695Y-3.9
X4.7Y-3.5
X4.7Y-3.6
X4.7Y-4.3
X4.7Y-4.5
X4.775Y-3.8
X4.775Y-3.925
X4.775Y-4.
X4.8584Y-3.8964
X4.875Y-3.8
X4.9Y-4.3
X4.975Y-3.8
X5.Y-3.5
X5.Y-3.6
X5.Y-3.975
X5.025Y-4.05
X5.05Y-3.825
X5.075Y-3.875
X5.0948Y-3.9711
X5.1Y-4.175
X5.1Y-4.3
X5.1Y-4.5
X5.15Y-3.875
X5.175Y-4.045
X5.2Y-3.5
X5.2Y-3.6
X5.2Y-3.7
X5.225Y-3.875
X5.25Y-4.05
X5.3Y-3.875
X5.3Y-4.175
X5.3Y-4.3
X5.3Y-4.5
X5.325Y-4.05
X5.35Y-3.9
X5.4Y-3.5
X5.4Y-3.6
X5.4Y-3.75
X5.4Y-3.95
X5.4Y-4.05
X5.475Y-4.05
X5.5Y-4.175
X5.5Y-4.3
X5.5Y-4.5
X5.55Y-4.05
X5.6Y-3.5
X5.6Y-3.6
X5.6Y-3.75
X5.625Y-3.825
X5.625Y-3.95
X5.625Y-4.05
X5.625Y-4.175
X5.7Y-4.3
X5.7Y-4.5
X5.775Y-3.725
X5.775Y-3.925
X5.775Y-4.075
X5.775Y-4.275
X5.8Y-3.5
X5.8Y-3.6
T2
X2.9Y-3.75
X3.Y-3.75
T3
X3.Y-4.088
X3.Y-4.269
X3.Y-4.45
T4
X3.4Y-3.75
X3.4Y-4.25
T0
M30
