G04 #@! TF.GenerationSoftware,KiCad,Pcbnew,(2017-05-02 revision e4d2924ee)-makepkg*
G04 #@! TF.CreationDate,2017-08-14T20:38:34-05:00*
G04 #@! TF.ProjectId,NoiseGen,4E6F69736547656E2E6B696361645F70,rev?*
G04 #@! TF.FileFunction,Legend,Bot*
G04 #@! TF.FilePolarity,Positive*
%FSLAX46Y46*%
G04 Gerber Fmt 4.6, Leading zero omitted, Abs format (unit mm)*
G04 Created by KiCad (PCBNEW (2017-05-02 revision e4d2924ee)-makepkg) date 08/14/17 20:38:34*
%MOMM*%
%LPD*%
G01*
G04 APERTURE LIST*
%ADD10C,0.100000*%
%ADD11C,0.150000*%
%ADD12C,0.508000*%
G04 APERTURE END LIST*
D10*
D11*
X86360000Y-86817200D02*
X140208000Y-86817200D01*
X140208000Y-116382800D02*
X140208000Y-86817200D01*
X86360000Y-115112800D02*
X86360000Y-115112800D01*
X86360000Y-116382800D02*
X86360000Y-86817200D01*
X87630000Y-116382800D02*
X87630000Y-116382800D01*
X86360000Y-116382800D02*
X140208000Y-116382800D01*
D12*
X91440000Y-109220000D02*
X91440000Y-106680000D01*
D11*
X91440000Y-106680000D02*
X91440000Y-106680000D01*
D12*
X90170000Y-107950000D02*
X92710000Y-107950000D01*
D11*
X92710000Y-107950000D02*
X92710000Y-107950000D01*
X92710000Y-95250000D02*
X92710000Y-95250000D01*
D12*
X90170000Y-95250000D02*
X92710000Y-95250000D01*
D11*
X89050714Y-114863571D02*
X88907857Y-114911190D01*
X88860238Y-114958809D01*
X88812619Y-115054047D01*
X88812619Y-115196904D01*
X88860238Y-115292142D01*
X88907857Y-115339761D01*
X89003095Y-115387380D01*
X89384047Y-115387380D01*
X89384047Y-114387380D01*
X89050714Y-114387380D01*
X88955476Y-114435000D01*
X88907857Y-114482619D01*
X88860238Y-114577857D01*
X88860238Y-114673095D01*
X88907857Y-114768333D01*
X88955476Y-114815952D01*
X89050714Y-114863571D01*
X89384047Y-114863571D01*
X88526904Y-114387380D02*
X87955476Y-114387380D01*
X88241190Y-115387380D02*
X88241190Y-114387380D01*
X87098333Y-115387380D02*
X87669761Y-115387380D01*
X87384047Y-115387380D02*
X87384047Y-114387380D01*
X87479285Y-114530238D01*
X87574523Y-114625476D01*
X87669761Y-114673095D01*
M02*
