G04 #@! TF.GenerationSoftware,KiCad,Pcbnew,(2017-05-02 revision e4d2924ee)-makepkg*
G04 #@! TF.CreationDate,2017-08-14T20:38:34-05:00*
G04 #@! TF.ProjectId,NoiseGen,4E6F69736547656E2E6B696361645F70,rev?*
G04 #@! TF.FileFunction,Copper,L2,Bot,Signal*
G04 #@! TF.FilePolarity,Positive*
%FSLAX46Y46*%
G04 Gerber Fmt 4.6, Leading zero omitted, Abs format (unit mm)*
G04 Created by KiCad (PCBNEW (2017-05-02 revision e4d2924ee)-makepkg) date 08/14/17 20:38:34*
%MOMM*%
%LPD*%
G01*
G04 APERTURE LIST*
%ADD10C,0.100000*%
%ADD11C,4.445000*%
%ADD12O,1.700000X1.700000*%
%ADD13R,1.700000X1.700000*%
%ADD14R,5.080000X2.616200*%
%ADD15C,3.302000*%
%ADD16C,0.800000*%
%ADD17C,0.203200*%
%ADD18C,1.016000*%
%ADD19C,0.508000*%
%ADD20C,0.762000*%
%ADD21C,0.254000*%
G04 APERTURE END LIST*
D10*
D11*
X86360000Y-107950000D03*
X86360000Y-95250000D03*
D12*
X73660000Y-95250000D03*
D13*
X76200000Y-95250000D03*
D14*
X146685000Y-105918000D03*
X146685000Y-97155000D03*
D15*
X76200000Y-113030000D03*
X76200000Y-108432600D03*
X76200000Y-103835200D03*
D16*
X73660000Y-88900000D03*
X81280000Y-92710000D03*
X76200000Y-97790000D03*
X96520000Y-97536000D03*
X99187000Y-98806000D03*
X101854000Y-97409000D03*
X104902000Y-98044000D03*
X108458000Y-97536000D03*
X98425000Y-92710000D03*
X101600000Y-93980000D03*
X105410000Y-93345000D03*
X107315000Y-92075000D03*
X146685000Y-99695000D03*
X80772000Y-109347000D03*
X123403373Y-98968482D03*
X111760000Y-102870000D03*
X129540000Y-106045000D03*
X134620000Y-106045000D03*
X139700000Y-106045000D03*
X131445000Y-102743000D03*
X129408352Y-100867205D03*
X110490000Y-97155000D03*
X109855000Y-95250000D03*
X109855000Y-93345000D03*
X111760000Y-92075000D03*
X127000000Y-100965000D03*
X116205000Y-99060000D03*
X113665000Y-99060000D03*
X113030000Y-93345000D03*
X113030000Y-95250000D03*
X114300000Y-96520000D03*
X116840000Y-96520000D03*
X118745000Y-96520000D03*
X121285000Y-96520000D03*
X123825000Y-96520000D03*
X126365000Y-96520000D03*
X128270000Y-97155000D03*
X128905000Y-98425000D03*
X130810000Y-98425000D03*
X132715000Y-98425000D03*
X134620000Y-98425000D03*
X135890000Y-99060000D03*
X133350000Y-102870000D03*
X135255000Y-102870000D03*
X137160000Y-102870000D03*
X139065000Y-102870000D03*
X140970000Y-102870000D03*
X142875000Y-102870000D03*
X137160000Y-100330000D03*
X142875000Y-100330000D03*
X119253000Y-99060000D03*
X111506000Y-98933000D03*
X146685000Y-103505000D03*
X121285000Y-99695000D03*
X142875000Y-97155000D03*
X132080000Y-93980000D03*
X142240000Y-95250000D03*
X137160000Y-95250000D03*
X94107000Y-105664000D03*
X95250000Y-109220000D03*
X96520000Y-101600000D03*
X99060000Y-101600000D03*
X90170000Y-100330000D03*
X95250000Y-100330000D03*
X102870000Y-100330000D03*
X106680000Y-102870000D03*
X116840000Y-102870000D03*
X91440000Y-93980000D03*
X86360000Y-99060000D03*
X86360000Y-101600000D03*
X119380000Y-88900000D03*
X127000000Y-88900000D03*
X132080000Y-88900000D03*
X137160000Y-88900000D03*
X147320000Y-91440000D03*
X147320000Y-88900000D03*
X142240000Y-88900000D03*
X83820000Y-88900000D03*
X88900000Y-88900000D03*
X96520000Y-88900000D03*
X106680000Y-88900000D03*
X111760000Y-88900000D03*
X114300000Y-91440000D03*
X119380000Y-91440000D03*
X127000000Y-91440000D03*
X132080000Y-91440000D03*
X137160000Y-91440000D03*
X142240000Y-91440000D03*
X96520000Y-111760000D03*
X91440000Y-109220000D03*
X104140000Y-109220000D03*
X109220000Y-109220000D03*
X114300000Y-109220000D03*
X119380000Y-109220000D03*
X124460000Y-109220000D03*
X129540000Y-109220000D03*
X134620000Y-109220000D03*
X139700000Y-109220000D03*
X144780000Y-109220000D03*
X81280000Y-114300000D03*
X86360000Y-114300000D03*
X91440000Y-114300000D03*
X96520000Y-114300000D03*
X104140000Y-114300000D03*
X109220000Y-114300000D03*
X114300000Y-114300000D03*
X119380000Y-114300000D03*
X129540000Y-114300000D03*
X134620000Y-114300000D03*
X139700000Y-114300000D03*
X144780000Y-114300000D03*
X146685000Y-108585000D03*
X146685000Y-94615000D03*
X121285000Y-101600000D03*
X117475000Y-100965000D03*
X127635000Y-102870000D03*
X142875000Y-106045000D03*
D17*
X101854000Y-97409000D02*
X100584000Y-97409000D01*
X100584000Y-97409000D02*
X99187000Y-98806000D01*
X108458000Y-97536000D02*
X107950000Y-98044000D01*
X107950000Y-98044000D02*
X104902000Y-98044000D01*
X101600000Y-93980000D02*
X100330000Y-92710000D01*
X100330000Y-92710000D02*
X98425000Y-92710000D01*
X107315000Y-92075000D02*
X106045000Y-93345000D01*
X106045000Y-93345000D02*
X105410000Y-93345000D01*
D18*
X81280000Y-114300000D02*
X81280000Y-109855000D01*
X81280000Y-109855000D02*
X80772000Y-109347000D01*
D19*
X139700000Y-106045000D02*
X134620000Y-106045000D01*
D17*
X109855000Y-95250000D02*
X109855000Y-96520000D01*
X109855000Y-96520000D02*
X110490000Y-97155000D01*
X111760000Y-92075000D02*
X111125000Y-92075000D01*
X111125000Y-92075000D02*
X109855000Y-93345000D01*
X113665000Y-99060000D02*
X116205000Y-99060000D01*
X113030000Y-95250000D02*
X113030000Y-93345000D01*
X116840000Y-96520000D02*
X114300000Y-96520000D01*
X121285000Y-96520000D02*
X118745000Y-96520000D01*
X126365000Y-96520000D02*
X123825000Y-96520000D01*
X128905000Y-98425000D02*
X128905000Y-97790000D01*
X128905000Y-97790000D02*
X128270000Y-97155000D01*
X132715000Y-98425000D02*
X130810000Y-98425000D01*
X135890000Y-99060000D02*
X135255000Y-99060000D01*
X135255000Y-99060000D02*
X134620000Y-98425000D01*
X135255000Y-102870000D02*
X133350000Y-102870000D01*
X139065000Y-102870000D02*
X137160000Y-102870000D01*
X142875000Y-102870000D02*
X140970000Y-102870000D01*
X139065000Y-100330000D02*
X137160000Y-100330000D01*
X142875000Y-100330000D02*
X140970000Y-100330000D01*
D20*
X137160000Y-95250000D02*
X142240000Y-95250000D01*
X102870000Y-100330000D02*
X95250000Y-100330000D01*
X116840000Y-102870000D02*
X106680000Y-102870000D01*
X86360000Y-101600000D02*
X86360000Y-99060000D01*
D17*
X132080000Y-88900000D02*
X127000000Y-88900000D01*
X142240000Y-88900000D02*
X137160000Y-88900000D01*
X142240000Y-88900000D02*
X147320000Y-88900000D01*
X96520000Y-88900000D02*
X88900000Y-88900000D01*
X111760000Y-88900000D02*
X106680000Y-88900000D01*
X119380000Y-91440000D02*
X114300000Y-91440000D01*
X132080000Y-91440000D02*
X127000000Y-91440000D01*
X142240000Y-91440000D02*
X137160000Y-91440000D01*
X104140000Y-109220000D02*
X91440000Y-109220000D01*
X114300000Y-109220000D02*
X109220000Y-109220000D01*
X124460000Y-109220000D02*
X119380000Y-109220000D01*
X134620000Y-109220000D02*
X129540000Y-109220000D01*
X144780000Y-109220000D02*
X139700000Y-109220000D01*
X86360000Y-114300000D02*
X81280000Y-114300000D01*
X96520000Y-114300000D02*
X91440000Y-114300000D01*
X109220000Y-114300000D02*
X104140000Y-114300000D01*
X119380000Y-114300000D02*
X114300000Y-114300000D01*
X134620000Y-114300000D02*
X129540000Y-114300000D01*
X144780000Y-114300000D02*
X139700000Y-114300000D01*
D20*
X146685000Y-105918000D02*
X146685000Y-108585000D01*
D21*
G36*
X149098000Y-95211900D02*
X146970750Y-95211900D01*
X146812000Y-95370650D01*
X146812000Y-97028000D01*
X146832000Y-97028000D01*
X146832000Y-97282000D01*
X146812000Y-97282000D01*
X146812000Y-98939350D01*
X146970750Y-99098100D01*
X149098000Y-99098100D01*
X149098000Y-103974900D01*
X146970750Y-103974900D01*
X146812000Y-104133650D01*
X146812000Y-105791000D01*
X146832000Y-105791000D01*
X146832000Y-106045000D01*
X146812000Y-106045000D01*
X146812000Y-107702350D01*
X146970750Y-107861100D01*
X149098000Y-107861100D01*
X149098000Y-117348000D01*
X71882000Y-117348000D01*
X71882000Y-113482719D01*
X73913604Y-113482719D01*
X74260894Y-114323223D01*
X74903395Y-114966846D01*
X75743292Y-115315602D01*
X76652719Y-115316396D01*
X77493223Y-114969106D01*
X78136846Y-114326605D01*
X78286865Y-113965319D01*
X99313604Y-113965319D01*
X99660894Y-114805823D01*
X100303395Y-115449446D01*
X101143292Y-115798202D01*
X102052719Y-115798996D01*
X102893223Y-115451706D01*
X103536846Y-114809205D01*
X103885602Y-113969308D01*
X103885605Y-113965319D01*
X121538604Y-113965319D01*
X121885894Y-114805823D01*
X122528395Y-115449446D01*
X123368292Y-115798202D01*
X124277719Y-115798996D01*
X125118223Y-115451706D01*
X125761846Y-114809205D01*
X126110602Y-113969308D01*
X126111396Y-113059881D01*
X125764106Y-112219377D01*
X125121605Y-111575754D01*
X124281708Y-111226998D01*
X123372281Y-111226204D01*
X122531777Y-111573494D01*
X121888154Y-112215995D01*
X121539398Y-113055892D01*
X121538604Y-113965319D01*
X103885605Y-113965319D01*
X103886396Y-113059881D01*
X103539106Y-112219377D01*
X102896605Y-111575754D01*
X102056708Y-111226998D01*
X101147281Y-111226204D01*
X100306777Y-111573494D01*
X99663154Y-112215995D01*
X99314398Y-113055892D01*
X99313604Y-113965319D01*
X78286865Y-113965319D01*
X78485602Y-113486708D01*
X78486396Y-112577281D01*
X78139106Y-111736777D01*
X77496605Y-111093154D01*
X76656708Y-110744398D01*
X75747281Y-110743604D01*
X74906777Y-111090894D01*
X74263154Y-111733395D01*
X73914398Y-112573292D01*
X73913604Y-113482719D01*
X71882000Y-113482719D01*
X71882000Y-108885319D01*
X73913604Y-108885319D01*
X74260894Y-109725823D01*
X74903395Y-110369446D01*
X75743292Y-110718202D01*
X76652719Y-110718996D01*
X77493223Y-110371706D01*
X78136846Y-109729205D01*
X78485602Y-108889308D01*
X78485928Y-108515898D01*
X83502005Y-108515898D01*
X83936117Y-109566529D01*
X84739243Y-110371058D01*
X85789114Y-110807003D01*
X86925898Y-110807995D01*
X87976529Y-110373883D01*
X88781058Y-109570757D01*
X89217003Y-108520886D01*
X89217995Y-107384102D01*
X88783883Y-106333471D01*
X88654389Y-106203750D01*
X143510000Y-106203750D01*
X143510000Y-107352409D01*
X143606673Y-107585798D01*
X143785301Y-107764427D01*
X144018690Y-107861100D01*
X146399250Y-107861100D01*
X146558000Y-107702350D01*
X146558000Y-106045000D01*
X143668750Y-106045000D01*
X143510000Y-106203750D01*
X88654389Y-106203750D01*
X87980757Y-105528942D01*
X86930886Y-105092997D01*
X85794102Y-105092005D01*
X84743471Y-105526117D01*
X83938942Y-106329243D01*
X83502997Y-107379114D01*
X83502005Y-108515898D01*
X78485928Y-108515898D01*
X78486396Y-107979881D01*
X78139106Y-107139377D01*
X77496605Y-106495754D01*
X76656708Y-106146998D01*
X75747281Y-106146204D01*
X74906777Y-106493494D01*
X74263154Y-107135995D01*
X73914398Y-107975892D01*
X73913604Y-108885319D01*
X71882000Y-108885319D01*
X71882000Y-104287919D01*
X73913604Y-104287919D01*
X74260894Y-105128423D01*
X74903395Y-105772046D01*
X75743292Y-106120802D01*
X76652719Y-106121596D01*
X77493223Y-105774306D01*
X78136846Y-105131805D01*
X78406008Y-104483591D01*
X143510000Y-104483591D01*
X143510000Y-105632250D01*
X143668750Y-105791000D01*
X146558000Y-105791000D01*
X146558000Y-104133650D01*
X146399250Y-103974900D01*
X144018690Y-103974900D01*
X143785301Y-104071573D01*
X143606673Y-104250202D01*
X143510000Y-104483591D01*
X78406008Y-104483591D01*
X78485602Y-104291908D01*
X78486396Y-103382481D01*
X78139106Y-102541977D01*
X77496605Y-101898354D01*
X76656708Y-101549598D01*
X75747281Y-101548804D01*
X74906777Y-101896094D01*
X74263154Y-102538595D01*
X73914398Y-103378492D01*
X73913604Y-104287919D01*
X71882000Y-104287919D01*
X71882000Y-97285621D01*
X84503984Y-97285621D01*
X84751871Y-97679465D01*
X85803998Y-98109937D01*
X86940772Y-98105009D01*
X87968129Y-97679465D01*
X88118377Y-97440750D01*
X143510000Y-97440750D01*
X143510000Y-98589409D01*
X143606673Y-98822798D01*
X143785301Y-99001427D01*
X144018690Y-99098100D01*
X146399250Y-99098100D01*
X146558000Y-98939350D01*
X146558000Y-97282000D01*
X143668750Y-97282000D01*
X143510000Y-97440750D01*
X88118377Y-97440750D01*
X88216016Y-97285621D01*
X86360000Y-95429605D01*
X84503984Y-97285621D01*
X71882000Y-97285621D01*
X71882000Y-95220907D01*
X72175000Y-95220907D01*
X72175000Y-95279093D01*
X72288039Y-95847378D01*
X72609946Y-96329147D01*
X73091715Y-96651054D01*
X73660000Y-96764093D01*
X74228285Y-96651054D01*
X74710054Y-96329147D01*
X74739403Y-96285223D01*
X74811673Y-96459698D01*
X74990301Y-96638327D01*
X75223690Y-96735000D01*
X75914250Y-96735000D01*
X76073000Y-96576250D01*
X76073000Y-95377000D01*
X76327000Y-95377000D01*
X76327000Y-96576250D01*
X76485750Y-96735000D01*
X77176310Y-96735000D01*
X77409699Y-96638327D01*
X77588327Y-96459698D01*
X77685000Y-96226309D01*
X77685000Y-95535750D01*
X77526250Y-95377000D01*
X76327000Y-95377000D01*
X76073000Y-95377000D01*
X76053000Y-95377000D01*
X76053000Y-95123000D01*
X76073000Y-95123000D01*
X76073000Y-93923750D01*
X76327000Y-93923750D01*
X76327000Y-95123000D01*
X77526250Y-95123000D01*
X77685000Y-94964250D01*
X77685000Y-94693998D01*
X83500063Y-94693998D01*
X83504991Y-95830772D01*
X83930535Y-96858129D01*
X84324379Y-97106016D01*
X86180395Y-95250000D01*
X86539605Y-95250000D01*
X88395621Y-97106016D01*
X88789465Y-96858129D01*
X89219937Y-95806002D01*
X89219567Y-95720591D01*
X143510000Y-95720591D01*
X143510000Y-96869250D01*
X143668750Y-97028000D01*
X146558000Y-97028000D01*
X146558000Y-95370650D01*
X146399250Y-95211900D01*
X144018690Y-95211900D01*
X143785301Y-95308573D01*
X143606673Y-95487202D01*
X143510000Y-95720591D01*
X89219567Y-95720591D01*
X89215009Y-94669228D01*
X88789465Y-93641871D01*
X88395621Y-93393984D01*
X86539605Y-95250000D01*
X86180395Y-95250000D01*
X84324379Y-93393984D01*
X83930535Y-93641871D01*
X83500063Y-94693998D01*
X77685000Y-94693998D01*
X77685000Y-94273691D01*
X77588327Y-94040302D01*
X77409699Y-93861673D01*
X77176310Y-93765000D01*
X76485750Y-93765000D01*
X76327000Y-93923750D01*
X76073000Y-93923750D01*
X75914250Y-93765000D01*
X75223690Y-93765000D01*
X74990301Y-93861673D01*
X74811673Y-94040302D01*
X74739403Y-94214777D01*
X74710054Y-94170853D01*
X74228285Y-93848946D01*
X73660000Y-93735907D01*
X73091715Y-93848946D01*
X72609946Y-94170853D01*
X72288039Y-94652622D01*
X72175000Y-95220907D01*
X71882000Y-95220907D01*
X71882000Y-93214379D01*
X84503984Y-93214379D01*
X86360000Y-95070395D01*
X88216016Y-93214379D01*
X87968129Y-92820535D01*
X86916002Y-92390063D01*
X85779228Y-92394991D01*
X84751871Y-92820535D01*
X84503984Y-93214379D01*
X71882000Y-93214379D01*
X71882000Y-90140119D01*
X99313604Y-90140119D01*
X99660894Y-90980623D01*
X100303395Y-91624246D01*
X101143292Y-91973002D01*
X102052719Y-91973796D01*
X102893223Y-91626506D01*
X103536846Y-90984005D01*
X103885602Y-90144108D01*
X103885605Y-90140119D01*
X121538604Y-90140119D01*
X121885894Y-90980623D01*
X122528395Y-91624246D01*
X123368292Y-91973002D01*
X124277719Y-91973796D01*
X125118223Y-91626506D01*
X125761846Y-90984005D01*
X126110602Y-90144108D01*
X126111396Y-89234681D01*
X125764106Y-88394177D01*
X125121605Y-87750554D01*
X124281708Y-87401798D01*
X123372281Y-87401004D01*
X122531777Y-87748294D01*
X121888154Y-88390795D01*
X121539398Y-89230692D01*
X121538604Y-90140119D01*
X103885605Y-90140119D01*
X103886396Y-89234681D01*
X103539106Y-88394177D01*
X102896605Y-87750554D01*
X102056708Y-87401798D01*
X101147281Y-87401004D01*
X100306777Y-87748294D01*
X99663154Y-88390795D01*
X99314398Y-89230692D01*
X99313604Y-90140119D01*
X71882000Y-90140119D01*
X71882000Y-89104971D01*
X72624821Y-89104971D01*
X72782058Y-89485515D01*
X73072954Y-89776919D01*
X73453223Y-89934820D01*
X73864971Y-89935179D01*
X74245515Y-89777942D01*
X74536919Y-89487046D01*
X74694820Y-89106777D01*
X74695179Y-88695029D01*
X74537942Y-88314485D01*
X74247046Y-88023081D01*
X73866777Y-87865180D01*
X73455029Y-87864821D01*
X73074485Y-88022058D01*
X72783081Y-88312954D01*
X72625180Y-88693223D01*
X72624821Y-89104971D01*
X71882000Y-89104971D01*
X71882000Y-85852000D01*
X149098000Y-85852000D01*
X149098000Y-95211900D01*
X149098000Y-95211900D01*
G37*
X149098000Y-95211900D02*
X146970750Y-95211900D01*
X146812000Y-95370650D01*
X146812000Y-97028000D01*
X146832000Y-97028000D01*
X146832000Y-97282000D01*
X146812000Y-97282000D01*
X146812000Y-98939350D01*
X146970750Y-99098100D01*
X149098000Y-99098100D01*
X149098000Y-103974900D01*
X146970750Y-103974900D01*
X146812000Y-104133650D01*
X146812000Y-105791000D01*
X146832000Y-105791000D01*
X146832000Y-106045000D01*
X146812000Y-106045000D01*
X146812000Y-107702350D01*
X146970750Y-107861100D01*
X149098000Y-107861100D01*
X149098000Y-117348000D01*
X71882000Y-117348000D01*
X71882000Y-113482719D01*
X73913604Y-113482719D01*
X74260894Y-114323223D01*
X74903395Y-114966846D01*
X75743292Y-115315602D01*
X76652719Y-115316396D01*
X77493223Y-114969106D01*
X78136846Y-114326605D01*
X78286865Y-113965319D01*
X99313604Y-113965319D01*
X99660894Y-114805823D01*
X100303395Y-115449446D01*
X101143292Y-115798202D01*
X102052719Y-115798996D01*
X102893223Y-115451706D01*
X103536846Y-114809205D01*
X103885602Y-113969308D01*
X103885605Y-113965319D01*
X121538604Y-113965319D01*
X121885894Y-114805823D01*
X122528395Y-115449446D01*
X123368292Y-115798202D01*
X124277719Y-115798996D01*
X125118223Y-115451706D01*
X125761846Y-114809205D01*
X126110602Y-113969308D01*
X126111396Y-113059881D01*
X125764106Y-112219377D01*
X125121605Y-111575754D01*
X124281708Y-111226998D01*
X123372281Y-111226204D01*
X122531777Y-111573494D01*
X121888154Y-112215995D01*
X121539398Y-113055892D01*
X121538604Y-113965319D01*
X103885605Y-113965319D01*
X103886396Y-113059881D01*
X103539106Y-112219377D01*
X102896605Y-111575754D01*
X102056708Y-111226998D01*
X101147281Y-111226204D01*
X100306777Y-111573494D01*
X99663154Y-112215995D01*
X99314398Y-113055892D01*
X99313604Y-113965319D01*
X78286865Y-113965319D01*
X78485602Y-113486708D01*
X78486396Y-112577281D01*
X78139106Y-111736777D01*
X77496605Y-111093154D01*
X76656708Y-110744398D01*
X75747281Y-110743604D01*
X74906777Y-111090894D01*
X74263154Y-111733395D01*
X73914398Y-112573292D01*
X73913604Y-113482719D01*
X71882000Y-113482719D01*
X71882000Y-108885319D01*
X73913604Y-108885319D01*
X74260894Y-109725823D01*
X74903395Y-110369446D01*
X75743292Y-110718202D01*
X76652719Y-110718996D01*
X77493223Y-110371706D01*
X78136846Y-109729205D01*
X78485602Y-108889308D01*
X78485928Y-108515898D01*
X83502005Y-108515898D01*
X83936117Y-109566529D01*
X84739243Y-110371058D01*
X85789114Y-110807003D01*
X86925898Y-110807995D01*
X87976529Y-110373883D01*
X88781058Y-109570757D01*
X89217003Y-108520886D01*
X89217995Y-107384102D01*
X88783883Y-106333471D01*
X88654389Y-106203750D01*
X143510000Y-106203750D01*
X143510000Y-107352409D01*
X143606673Y-107585798D01*
X143785301Y-107764427D01*
X144018690Y-107861100D01*
X146399250Y-107861100D01*
X146558000Y-107702350D01*
X146558000Y-106045000D01*
X143668750Y-106045000D01*
X143510000Y-106203750D01*
X88654389Y-106203750D01*
X87980757Y-105528942D01*
X86930886Y-105092997D01*
X85794102Y-105092005D01*
X84743471Y-105526117D01*
X83938942Y-106329243D01*
X83502997Y-107379114D01*
X83502005Y-108515898D01*
X78485928Y-108515898D01*
X78486396Y-107979881D01*
X78139106Y-107139377D01*
X77496605Y-106495754D01*
X76656708Y-106146998D01*
X75747281Y-106146204D01*
X74906777Y-106493494D01*
X74263154Y-107135995D01*
X73914398Y-107975892D01*
X73913604Y-108885319D01*
X71882000Y-108885319D01*
X71882000Y-104287919D01*
X73913604Y-104287919D01*
X74260894Y-105128423D01*
X74903395Y-105772046D01*
X75743292Y-106120802D01*
X76652719Y-106121596D01*
X77493223Y-105774306D01*
X78136846Y-105131805D01*
X78406008Y-104483591D01*
X143510000Y-104483591D01*
X143510000Y-105632250D01*
X143668750Y-105791000D01*
X146558000Y-105791000D01*
X146558000Y-104133650D01*
X146399250Y-103974900D01*
X144018690Y-103974900D01*
X143785301Y-104071573D01*
X143606673Y-104250202D01*
X143510000Y-104483591D01*
X78406008Y-104483591D01*
X78485602Y-104291908D01*
X78486396Y-103382481D01*
X78139106Y-102541977D01*
X77496605Y-101898354D01*
X76656708Y-101549598D01*
X75747281Y-101548804D01*
X74906777Y-101896094D01*
X74263154Y-102538595D01*
X73914398Y-103378492D01*
X73913604Y-104287919D01*
X71882000Y-104287919D01*
X71882000Y-97285621D01*
X84503984Y-97285621D01*
X84751871Y-97679465D01*
X85803998Y-98109937D01*
X86940772Y-98105009D01*
X87968129Y-97679465D01*
X88118377Y-97440750D01*
X143510000Y-97440750D01*
X143510000Y-98589409D01*
X143606673Y-98822798D01*
X143785301Y-99001427D01*
X144018690Y-99098100D01*
X146399250Y-99098100D01*
X146558000Y-98939350D01*
X146558000Y-97282000D01*
X143668750Y-97282000D01*
X143510000Y-97440750D01*
X88118377Y-97440750D01*
X88216016Y-97285621D01*
X86360000Y-95429605D01*
X84503984Y-97285621D01*
X71882000Y-97285621D01*
X71882000Y-95220907D01*
X72175000Y-95220907D01*
X72175000Y-95279093D01*
X72288039Y-95847378D01*
X72609946Y-96329147D01*
X73091715Y-96651054D01*
X73660000Y-96764093D01*
X74228285Y-96651054D01*
X74710054Y-96329147D01*
X74739403Y-96285223D01*
X74811673Y-96459698D01*
X74990301Y-96638327D01*
X75223690Y-96735000D01*
X75914250Y-96735000D01*
X76073000Y-96576250D01*
X76073000Y-95377000D01*
X76327000Y-95377000D01*
X76327000Y-96576250D01*
X76485750Y-96735000D01*
X77176310Y-96735000D01*
X77409699Y-96638327D01*
X77588327Y-96459698D01*
X77685000Y-96226309D01*
X77685000Y-95535750D01*
X77526250Y-95377000D01*
X76327000Y-95377000D01*
X76073000Y-95377000D01*
X76053000Y-95377000D01*
X76053000Y-95123000D01*
X76073000Y-95123000D01*
X76073000Y-93923750D01*
X76327000Y-93923750D01*
X76327000Y-95123000D01*
X77526250Y-95123000D01*
X77685000Y-94964250D01*
X77685000Y-94693998D01*
X83500063Y-94693998D01*
X83504991Y-95830772D01*
X83930535Y-96858129D01*
X84324379Y-97106016D01*
X86180395Y-95250000D01*
X86539605Y-95250000D01*
X88395621Y-97106016D01*
X88789465Y-96858129D01*
X89219937Y-95806002D01*
X89219567Y-95720591D01*
X143510000Y-95720591D01*
X143510000Y-96869250D01*
X143668750Y-97028000D01*
X146558000Y-97028000D01*
X146558000Y-95370650D01*
X146399250Y-95211900D01*
X144018690Y-95211900D01*
X143785301Y-95308573D01*
X143606673Y-95487202D01*
X143510000Y-95720591D01*
X89219567Y-95720591D01*
X89215009Y-94669228D01*
X88789465Y-93641871D01*
X88395621Y-93393984D01*
X86539605Y-95250000D01*
X86180395Y-95250000D01*
X84324379Y-93393984D01*
X83930535Y-93641871D01*
X83500063Y-94693998D01*
X77685000Y-94693998D01*
X77685000Y-94273691D01*
X77588327Y-94040302D01*
X77409699Y-93861673D01*
X77176310Y-93765000D01*
X76485750Y-93765000D01*
X76327000Y-93923750D01*
X76073000Y-93923750D01*
X75914250Y-93765000D01*
X75223690Y-93765000D01*
X74990301Y-93861673D01*
X74811673Y-94040302D01*
X74739403Y-94214777D01*
X74710054Y-94170853D01*
X74228285Y-93848946D01*
X73660000Y-93735907D01*
X73091715Y-93848946D01*
X72609946Y-94170853D01*
X72288039Y-94652622D01*
X72175000Y-95220907D01*
X71882000Y-95220907D01*
X71882000Y-93214379D01*
X84503984Y-93214379D01*
X86360000Y-95070395D01*
X88216016Y-93214379D01*
X87968129Y-92820535D01*
X86916002Y-92390063D01*
X85779228Y-92394991D01*
X84751871Y-92820535D01*
X84503984Y-93214379D01*
X71882000Y-93214379D01*
X71882000Y-90140119D01*
X99313604Y-90140119D01*
X99660894Y-90980623D01*
X100303395Y-91624246D01*
X101143292Y-91973002D01*
X102052719Y-91973796D01*
X102893223Y-91626506D01*
X103536846Y-90984005D01*
X103885602Y-90144108D01*
X103885605Y-90140119D01*
X121538604Y-90140119D01*
X121885894Y-90980623D01*
X122528395Y-91624246D01*
X123368292Y-91973002D01*
X124277719Y-91973796D01*
X125118223Y-91626506D01*
X125761846Y-90984005D01*
X126110602Y-90144108D01*
X126111396Y-89234681D01*
X125764106Y-88394177D01*
X125121605Y-87750554D01*
X124281708Y-87401798D01*
X123372281Y-87401004D01*
X122531777Y-87748294D01*
X121888154Y-88390795D01*
X121539398Y-89230692D01*
X121538604Y-90140119D01*
X103885605Y-90140119D01*
X103886396Y-89234681D01*
X103539106Y-88394177D01*
X102896605Y-87750554D01*
X102056708Y-87401798D01*
X101147281Y-87401004D01*
X100306777Y-87748294D01*
X99663154Y-88390795D01*
X99314398Y-89230692D01*
X99313604Y-90140119D01*
X71882000Y-90140119D01*
X71882000Y-89104971D01*
X72624821Y-89104971D01*
X72782058Y-89485515D01*
X73072954Y-89776919D01*
X73453223Y-89934820D01*
X73864971Y-89935179D01*
X74245515Y-89777942D01*
X74536919Y-89487046D01*
X74694820Y-89106777D01*
X74695179Y-88695029D01*
X74537942Y-88314485D01*
X74247046Y-88023081D01*
X73866777Y-87865180D01*
X73455029Y-87864821D01*
X73074485Y-88022058D01*
X72783081Y-88312954D01*
X72625180Y-88693223D01*
X72624821Y-89104971D01*
X71882000Y-89104971D01*
X71882000Y-85852000D01*
X149098000Y-85852000D01*
X149098000Y-95211900D01*
M02*
